<svg width="310" height="41" viewBox="0 0 310 41" fill="none" xmlns="http://www.w3.org/2000/svg">
<path d="M3.34428 40.348C2.49362 40.348 1.77495 40.172 1.18828 39.82C0.396282 39.38 0.000282168 38.6907 0.000282168 37.752C0.000282168 36.9307 0.264282 36.1973 0.792282 35.552C1.37895 34.8773 2.05362 34.54 2.81628 34.54C3.37362 34.54 3.85762 34.7453 4.26828 35.156C4.62028 35.5667 4.79628 35.9773 4.79628 36.388C4.79628 37.1213 4.51762 37.7227 3.96028 38.192C3.49095 38.632 2.96295 38.852 2.37628 38.852C1.81895 38.852 1.33495 38.6467 0.924282 38.236C1.10028 38.8813 1.70162 39.204 2.72828 39.204C4.28295 39.204 6.13095 38.1627 8.27228 36.08C9.06428 35.3173 9.91495 34.3933 10.8243 33.308C11.7043 32.252 12.6283 31.02 13.5963 29.612C14.2416 28.6733 14.8723 27.7493 15.4883 26.84C16.1043 25.9013 16.7349 24.9627 17.3803 24.024C15.2389 20.7387 14.1683 17.644 14.1683 14.74C14.1683 13.068 14.5496 11.7187 15.3123 10.692C16.1043 9.66534 17.1163 9.152 18.3483 9.152C20.6363 9.152 23.027 10.736 25.5203 13.904C28.3363 11 31.211 8.536 34.1443 6.512C38.075 3.784 41.3163 2.42 43.8683 2.42C44.895 2.42 45.4083 2.64 45.4083 3.08C45.4083 3.19734 45.3643 3.344 45.2763 3.52C38.6763 15.3413 34.9803 23.364 34.1883 27.588C34.1296 27.9987 34.071 28.38 34.0123 28.732C33.983 29.084 33.9683 29.4067 33.9683 29.7C33.9683 31.548 34.7163 32.472 36.2123 32.472C37.7376 32.472 39.879 29.5973 42.6363 23.848C42.7536 23.5547 42.915 23.3787 43.1203 23.32H43.1643C43.2816 23.32 43.3403 23.4227 43.3403 23.628C43.3403 23.804 43.267 24.0387 43.1203 24.332C42.299 25.9747 41.639 27.28 41.1403 28.248C40.671 29.216 40.3483 29.832 40.1723 30.096C39.351 31.3867 38.5296 32.34 37.7083 32.956C36.8869 33.572 36.0803 33.88 35.2883 33.88C34.291 33.88 33.3376 33.4987 32.4283 32.736C31.2843 31.7387 30.6536 30.3453 30.5363 28.556C29.7443 23.7453 27.999 19.6387 25.3003 16.236C24.3616 17.2333 23.3643 18.392 22.3083 19.712C21.2816 21.032 20.1816 22.5133 19.0083 24.156C20.3576 26.2973 21.8976 28.2773 23.6283 30.096C25.3883 31.9147 27.339 33.5573 29.4803 35.024C29.6856 35.1413 29.7883 35.288 29.7883 35.464C29.7883 35.6987 29.7003 35.816 29.5243 35.816C29.4363 35.816 29.3043 35.772 29.1283 35.684C28.307 35.1853 27.4563 34.584 26.5763 33.88C25.6963 33.2053 24.7723 32.4133 23.8043 31.504C22.719 30.5067 21.707 29.4947 20.7683 28.468C19.859 27.412 19.0083 26.3413 18.2163 25.256C16.2216 28.072 14.6376 30.2867 13.4643 31.9C12.3203 33.5133 11.5869 34.5253 11.2643 34.936C8.85895 37.928 6.79095 39.644 5.06028 40.084C4.50295 40.26 3.93095 40.348 3.34428 40.348ZM30.8443 25.432C31.0203 24.6693 31.2696 23.8773 31.5923 23.056C31.9443 22.2053 32.3696 21.34 32.8683 20.46C35.391 15.972 37.9283 11.8653 40.4803 8.14C40.7736 7.72934 40.9203 7.36267 40.9203 7.04C40.9203 6.65867 40.6416 6.468 40.0843 6.468C38.383 6.468 35.963 7.55333 32.8243 9.724C31.563 10.604 30.4043 11.4987 29.3483 12.408C28.2923 13.288 27.3096 14.1827 26.4003 15.092C28.395 18.084 29.8763 21.5307 30.8443 25.432ZM18.2163 22.836C19.3603 21.2813 20.431 19.8587 21.4283 18.568C22.455 17.2773 23.423 16.1333 24.3323 15.136C22.4843 13.1707 20.8416 12.188 19.4043 12.188C18.5243 12.188 17.835 12.584 17.3363 13.376C16.8083 14.1973 16.5443 15.2533 16.5443 16.544C16.5443 18.568 17.1016 20.6653 18.2163 22.836ZM41.0719 33.484C41.6585 32.0467 42.3919 30.272 43.2719 28.16C44.1519 26.048 45.2225 23.6133 46.4839 20.856C46.7479 20.2693 46.9972 19.7853 47.2319 19.404C47.4665 19.0227 47.6865 18.7293 47.8919 18.524C48.3025 18.1133 48.8305 17.908 49.4759 17.908C49.5345 17.908 49.6372 17.908 49.7839 17.908C49.9305 17.908 50.1359 17.9373 50.3999 17.996C50.8105 18.0253 51.1185 18.0253 51.3239 17.996C50.2385 18.6413 48.6105 21.4867 46.4399 26.532C46.7919 26.0333 47.2612 25.4907 47.8479 24.904C48.4639 24.288 49.1825 23.6133 50.0039 22.88C50.5319 22.3813 51.1185 21.912 51.7639 21.472C52.4092 21.0027 53.1132 20.5627 53.8759 20.152C55.6065 19.184 56.8825 18.7 57.7039 18.7C57.9092 18.7 58.0559 18.7147 58.1439 18.744C57.6745 19.5653 57.2345 20.3573 56.8239 21.12C56.4425 21.8827 56.0759 22.6013 55.7239 23.276C54.0225 26.5613 53.0692 28.8347 52.8639 30.096C52.8345 30.3013 52.8052 30.492 52.7759 30.668C52.7759 30.844 52.7759 31.0053 52.7759 31.152C52.7759 31.9147 53.0545 32.296 53.6119 32.296C54.5212 32.296 55.6065 31.372 56.8679 29.524L57.4839 29.964C55.9879 32.2227 54.4772 33.352 52.9519 33.352C51.1039 33.352 50.1799 32.3987 50.1799 30.492C50.1799 28.9373 51.1332 26.6347 53.0399 23.584C53.3332 23.1147 53.4799 22.7187 53.4799 22.396C53.4799 22.044 53.3185 21.868 52.9959 21.868C52.6732 21.868 52.2479 22.044 51.7199 22.396C51.2212 22.7187 50.6199 23.2027 49.9159 23.848C48.8012 24.8747 47.7599 26.1067 46.7919 27.544C45.8239 28.952 44.9439 30.5653 44.1519 32.384C43.9759 32.824 43.5212 33.088 42.7879 33.176C41.8492 33.264 41.2772 33.3667 41.0719 33.484ZM70.1528 33.264C69.5074 33.264 68.9794 33.0733 68.5688 32.692C67.9821 32.1933 67.6888 31.3573 67.6888 30.184C67.6888 29.4213 67.8208 28.556 68.0848 27.588C67.0874 29.26 66.0461 30.624 64.9608 31.68C63.8461 32.7067 62.8488 33.22 61.9688 33.22C61.2061 33.22 60.6048 32.8827 60.1648 32.208C59.6954 31.5627 59.4608 30.668 59.4608 29.524C59.4608 26.7373 60.7074 23.8627 63.2008 20.9C63.6114 20.4013 64.0808 19.9467 64.6088 19.536C65.1368 19.1253 65.7088 18.7587 66.3248 18.436C67.5861 17.7907 68.8034 17.468 69.9768 17.468C71.4141 17.468 72.5581 17.9373 73.4088 18.876C73.6141 19.0813 73.7168 19.316 73.7168 19.58C73.7168 20.0787 73.4528 20.2693 72.9248 20.152C72.6314 19.096 71.9421 18.568 70.8568 18.568C69.6248 18.568 68.1728 19.4333 66.5008 21.164C65.9141 21.8093 65.3568 22.484 64.8288 23.188C64.3008 23.8627 63.8021 24.5813 63.3328 25.344C62.0714 27.456 61.4408 29.172 61.4408 30.492C61.4408 31.4893 61.8221 31.988 62.5848 31.988C63.4354 31.988 64.4181 31.3427 65.5328 30.052C66.1488 29.348 66.7794 28.4827 67.4248 27.456C68.0701 26.4293 68.7448 25.2413 69.4488 23.892C69.7421 23.3347 70.0061 22.88 70.2408 22.528C70.4754 22.176 70.6661 21.912 70.8128 21.736C71.2821 21.2667 71.8394 21.0467 72.4848 21.076L73.3648 21.208C73.7461 21.296 74.0688 21.3107 74.3328 21.252C74.0688 21.516 73.7461 21.9413 73.3648 22.528C73.0128 23.0853 72.6021 23.8187 72.1328 24.728C71.6341 25.696 71.2234 26.576 70.9008 27.368C70.5781 28.16 70.3581 28.864 70.2408 29.48C70.1821 29.7733 70.1381 30.052 70.1088 30.316C70.0794 30.5507 70.0648 30.7707 70.0648 30.976C70.0648 31.7387 70.2701 32.12 70.6808 32.12C71.2674 32.12 72.0741 31.4747 73.1008 30.184L73.2768 29.964L73.8928 30.36L73.7168 30.624C72.5141 32.384 71.3261 33.264 70.1528 33.264ZM79.8063 33.352C78.3396 33.352 77.2103 32.912 76.4183 32.032C75.773 31.2987 75.4503 30.4187 75.4503 29.392C75.4503 27.896 75.9196 27.148 76.8583 27.148C77.2103 27.148 77.533 27.28 77.8263 27.544C78.1196 27.8373 78.2663 28.1747 78.2663 28.556C78.2663 28.7907 78.2076 28.9813 78.0903 29.128C77.709 29.5973 77.5183 30.1107 77.5183 30.668C77.5183 31.2253 77.6943 31.68 78.0463 32.032C78.4276 32.4133 78.9116 32.604 79.4983 32.604C80.1143 32.604 80.6716 32.3987 81.1703 31.988C81.845 31.372 82.1823 30.5213 82.1823 29.436C82.1823 28.4973 81.933 27.4413 81.4343 26.268C81.229 25.9747 80.9796 25.5933 80.6863 25.124C80.4223 24.6547 80.1143 24.0973 79.7623 23.452C79.557 23.1 79.4103 22.748 79.3223 22.396C79.2636 22.0147 79.2343 21.648 79.2343 21.296C79.2343 20.064 79.689 19.0813 80.5983 18.348C81.537 17.5853 82.7396 17.204 84.2063 17.204C84.617 17.204 85.013 17.248 85.3943 17.336C85.805 17.424 86.1716 17.5853 86.4943 17.82C87.169 18.3187 87.5063 18.9347 87.5063 19.668C87.5063 19.9907 87.4476 20.284 87.3303 20.548C87.0663 21.3107 86.4943 21.692 85.6143 21.692C84.6463 21.692 84.1623 21.1933 84.1623 20.196C84.1623 19.9027 84.2063 19.6533 84.2943 19.448C84.3823 19.1547 84.705 18.8613 85.2623 18.568C85.057 18.1867 84.6756 17.996 84.1183 17.996C83.6196 17.996 83.253 18.1133 83.0183 18.348C82.3143 18.964 81.9623 19.7413 81.9623 20.68C81.9623 21.3253 82.1383 22.0293 82.4903 22.792C82.549 22.9093 83.121 23.8333 84.2063 25.564C84.9396 26.7373 85.3063 27.72 85.3063 28.512C85.3063 29.7733 84.7196 30.888 83.5463 31.856C82.373 32.8533 81.1263 33.352 79.8063 33.352ZM91.9073 33.176C90.0007 33.176 89.0473 32.1347 89.0473 30.052C89.0473 29.6413 89.0767 29.216 89.1353 28.776C89.2233 28.336 89.3553 27.896 89.5313 27.456C91.086 23.3493 92.406 20.0053 93.4913 17.424H90.6313L91.1593 16.456H93.8873L94.9433 13.376C95.3247 12.2907 95.6473 11.6453 95.9113 11.44C96.1167 11.2933 96.586 11.22 97.3193 11.22L99.2113 11.264C98.6247 11.7627 98.1847 12.364 97.8913 13.068L96.4393 16.456H99.7833L99.2553 17.424H96.0433C95.838 17.8933 95.6327 18.3627 95.4273 18.832C95.2513 19.3013 95.046 19.7853 94.8113 20.284C94.1953 21.6333 93.6673 22.9093 93.2273 24.112C92.6993 25.4907 92.274 26.6787 91.9513 27.676C91.658 28.6733 91.482 29.4653 91.4233 30.052C91.306 31.4893 91.6873 32.208 92.5673 32.208C93.3887 32.208 94.386 31.328 95.5593 29.568L96.0873 30.184C94.6793 32.1787 93.286 33.176 91.9073 33.176ZM109.144 33.264C108.499 33.264 107.971 33.0733 107.56 32.692C106.974 32.1933 106.68 31.3573 106.68 30.184C106.68 29.4213 106.812 28.556 107.076 27.588C106.079 29.26 105.038 30.624 103.952 31.68C102.838 32.7067 101.84 33.22 100.96 33.22C100.198 33.22 99.5963 32.8827 99.1563 32.208C98.687 31.5627 98.4523 30.668 98.4523 29.524C98.4523 26.7373 99.699 23.8627 102.192 20.9C102.603 20.4013 103.072 19.9467 103.6 19.536C104.128 19.1253 104.7 18.7587 105.316 18.436C106.578 17.7907 107.795 17.468 108.968 17.468C110.406 17.468 111.55 17.9373 112.4 18.876C112.606 19.0813 112.708 19.316 112.708 19.58C112.708 20.0787 112.444 20.2693 111.916 20.152C111.623 19.096 110.934 18.568 109.848 18.568C108.616 18.568 107.164 19.4333 105.492 21.164C104.906 21.8093 104.348 22.484 103.82 23.188C103.292 23.8627 102.794 24.5813 102.324 25.344C101.063 27.456 100.432 29.172 100.432 30.492C100.432 31.4893 100.814 31.988 101.576 31.988C102.427 31.988 103.41 31.3427 104.524 30.052C105.14 29.348 105.771 28.4827 106.416 27.456C107.062 26.4293 107.736 25.2413 108.44 23.892C108.734 23.3347 108.998 22.88 109.232 22.528C109.467 22.176 109.658 21.912 109.804 21.736C110.274 21.2667 110.831 21.0467 111.476 21.076L112.356 21.208C112.738 21.296 113.06 21.3107 113.324 21.252C113.06 21.516 112.738 21.9413 112.356 22.528C112.004 23.0853 111.594 23.8187 111.124 24.728C110.626 25.696 110.215 26.576 109.892 27.368C109.57 28.16 109.35 28.864 109.232 29.48C109.174 29.7733 109.13 30.052 109.1 30.316C109.071 30.5507 109.056 30.7707 109.056 30.976C109.056 31.7387 109.262 32.12 109.672 32.12C110.259 32.12 111.066 31.4747 112.092 30.184L112.268 29.964L112.884 30.36L112.708 30.624C111.506 32.384 110.318 33.264 109.144 33.264ZM118.798 33.352C117.331 33.352 116.202 32.912 115.41 32.032C114.765 31.2987 114.442 30.4187 114.442 29.392C114.442 27.896 114.911 27.148 115.85 27.148C116.202 27.148 116.525 27.28 116.818 27.544C117.111 27.8373 117.258 28.1747 117.258 28.556C117.258 28.7907 117.199 28.9813 117.082 29.128C116.701 29.5973 116.51 30.1107 116.51 30.668C116.51 31.2253 116.686 31.68 117.038 32.032C117.419 32.4133 117.903 32.604 118.49 32.604C119.106 32.604 119.663 32.3987 120.162 31.988C120.837 31.372 121.174 30.5213 121.174 29.436C121.174 28.4973 120.925 27.4413 120.426 26.268C120.221 25.9747 119.971 25.5933 119.678 25.124C119.414 24.6547 119.106 24.0973 118.754 23.452C118.549 23.1 118.402 22.748 118.314 22.396C118.255 22.0147 118.226 21.648 118.226 21.296C118.226 20.064 118.681 19.0813 119.59 18.348C120.529 17.5853 121.731 17.204 123.198 17.204C123.609 17.204 124.005 17.248 124.386 17.336C124.797 17.424 125.163 17.5853 125.486 17.82C126.161 18.3187 126.498 18.9347 126.498 19.668C126.498 19.9907 126.439 20.284 126.322 20.548C126.058 21.3107 125.486 21.692 124.606 21.692C123.638 21.692 123.154 21.1933 123.154 20.196C123.154 19.9027 123.198 19.6533 123.286 19.448C123.374 19.1547 123.697 18.8613 124.254 18.568C124.049 18.1867 123.667 17.996 123.11 17.996C122.611 17.996 122.245 18.1133 122.01 18.348C121.306 18.964 120.954 19.7413 120.954 20.68C120.954 21.3253 121.13 22.0293 121.482 22.792C121.541 22.9093 122.113 23.8333 123.198 25.564C123.931 26.7373 124.298 27.72 124.298 28.512C124.298 29.7733 123.711 30.888 122.538 31.856C121.365 32.8533 120.118 33.352 118.798 33.352ZM134.023 16.148C133.026 16.148 132.527 15.664 132.527 14.696C132.527 13.728 132.996 13.244 133.935 13.244C134.932 13.244 135.431 13.728 135.431 14.696C135.431 15.664 134.962 16.148 134.023 16.148ZM128.039 33.176C127.188 33.176 126.763 32.7507 126.763 31.9C126.763 31.372 126.939 30.6533 127.291 29.744C128.054 27.8667 128.772 26.136 129.447 24.552C130.122 22.968 130.752 21.5307 131.339 20.24C131.427 20.0933 131.471 19.932 131.471 19.756C131.471 19.3453 131.28 18.9053 130.899 18.436L133.319 18.392C134.14 18.392 134.551 18.5973 134.551 19.008C134.551 19.1253 134.522 19.2573 134.463 19.404C134.404 19.5213 134.331 19.6973 134.243 19.932L130.195 29.304C129.784 30.272 129.579 31.0933 129.579 31.768C129.579 32.472 129.799 32.9413 130.239 33.176H128.039ZM146.073 33.264C145.428 33.264 144.9 33.0733 144.489 32.692C143.903 32.1933 143.609 31.3573 143.609 30.184C143.609 29.4213 143.741 28.556 144.005 27.588C143.008 29.26 141.967 30.624 140.881 31.68C139.767 32.7067 138.769 33.22 137.889 33.22C137.127 33.22 136.525 32.8827 136.085 32.208C135.616 31.5627 135.381 30.668 135.381 29.524C135.381 26.7373 136.628 23.8627 139.121 20.9C139.532 20.4013 140.001 19.9467 140.529 19.536C141.057 19.1253 141.629 18.7587 142.245 18.436C143.507 17.7907 144.724 17.468 145.897 17.468C147.335 17.468 148.479 17.9373 149.329 18.876C149.535 19.0813 149.637 19.316 149.637 19.58C149.637 20.0787 149.373 20.2693 148.845 20.152C148.552 19.096 147.863 18.568 146.777 18.568C145.545 18.568 144.093 19.4333 142.421 21.164C141.835 21.8093 141.277 22.484 140.749 23.188C140.221 23.8627 139.723 24.5813 139.253 25.344C137.992 27.456 137.361 29.172 137.361 30.492C137.361 31.4893 137.743 31.988 138.505 31.988C139.356 31.988 140.339 31.3427 141.453 30.052C142.069 29.348 142.7 28.4827 143.345 27.456C143.991 26.4293 144.665 25.2413 145.369 23.892C145.663 23.3347 145.927 22.88 146.161 22.528C146.396 22.176 146.587 21.912 146.733 21.736C147.203 21.2667 147.76 21.0467 148.405 21.076L149.285 21.208C149.667 21.296 149.989 21.3107 150.253 21.252C149.989 21.516 149.667 21.9413 149.285 22.528C148.933 23.0853 148.523 23.8187 148.053 24.728C147.555 25.696 147.144 26.576 146.821 27.368C146.499 28.16 146.279 28.864 146.161 29.48C146.103 29.7733 146.059 30.052 146.029 30.316C146 30.5507 145.985 30.7707 145.985 30.976C145.985 31.7387 146.191 32.12 146.601 32.12C147.188 32.12 147.995 31.4747 149.021 30.184L149.197 29.964L149.813 30.36L149.637 30.624C148.435 32.384 147.247 33.264 146.073 33.264ZM162.734 35.728C160.328 35.728 159.038 34.76 158.862 32.824C158.832 32.0027 159.052 31.2693 159.522 30.624C160.02 29.9493 160.651 29.612 161.414 29.612C161.971 29.612 162.455 29.8467 162.866 30.316C163.247 30.756 163.438 31.2253 163.438 31.724C163.438 33.1027 162.792 33.792 161.502 33.792C161.179 33.792 160.871 33.7187 160.578 33.572C160.314 33.4547 160.108 33.2493 159.962 32.956C160.138 34.012 161.018 34.54 162.602 34.54C162.954 34.54 163.276 34.496 163.57 34.408C166.092 33.7333 168.219 32.2813 169.95 30.052C170.712 29.084 171.563 27.7053 172.502 25.916C173.44 24.1267 174.482 21.956 175.626 19.404L181.434 6.512C181.727 5.86667 182.05 5.29467 182.402 4.796C182.783 4.268 183.179 3.76933 183.59 3.3C180.011 3.18267 176.359 3.74 172.634 4.972C168.703 6.292 165.828 8.08133 164.01 10.34C163.159 11.4253 162.734 12.4227 162.734 13.332C162.734 15.18 164.068 16.104 166.738 16.104C170.023 16.104 172.692 14.8133 174.746 12.232C175.244 11.616 175.714 10.8827 176.154 10.032C176.623 9.152 177.048 8.12533 177.43 6.952C177.518 6.74667 177.635 6.644 177.782 6.644C178.016 6.644 178.09 6.80533 178.002 7.128C177.884 7.50933 177.767 7.89067 177.65 8.272C177.562 8.65333 177.444 9.02 177.298 9.372C177.063 10.076 176.784 10.736 176.462 11.352C176.139 11.9387 175.787 12.4813 175.406 12.98C173.44 15.7373 170.654 17.116 167.046 17.116C165.374 17.116 164.068 16.676 163.13 15.796C162.162 14.916 161.678 13.816 161.678 12.496C161.678 11.3227 162.088 10.12 162.91 8.888C164.288 6.80533 166.987 5.148 171.006 3.916C172.766 3.388 174.584 2.992 176.462 2.728C178.368 2.43467 180.334 2.288 182.358 2.288C182.739 2.288 183.106 2.288 183.458 2.288C183.839 2.288 184.206 2.30267 184.558 2.332C186.347 0.777335 188.21 2.14577e-06 190.146 2.14577e-06C190.908 2.14577e-06 191.686 0.161335 192.478 0.484001C192.624 0.542667 192.698 0.660001 192.698 0.836002C192.698 1.188 192.595 1.32 192.39 1.232C191.862 0.968002 191.275 0.836002 190.63 0.836002C189.192 0.836002 187.828 1.408 186.538 2.552C188.943 2.58133 190.82 3.09467 192.17 4.092C194.076 5.5 194.942 7.15733 194.766 9.064C194.502 12.056 192.639 14.4907 189.178 16.368C186.538 17.8347 183.81 18.568 180.994 18.568C180.788 18.568 180.568 18.568 180.334 18.568C180.128 18.568 179.908 18.5533 179.674 18.524C179.468 19.1693 179.175 19.9467 178.794 20.856C178.412 21.736 177.958 22.7333 177.43 23.848C176.227 26.4 174.423 28.8493 172.018 31.196C168.908 34.2173 165.814 35.728 162.734 35.728ZM180.95 17.6C182.944 17.6 184.836 16.984 186.626 15.752C188.298 14.608 189.662 13.0533 190.718 11.088C191.187 10.208 191.422 9.35734 191.422 8.536C191.422 7.06934 190.835 5.852 189.662 4.884C188.488 3.94534 187.095 3.53467 185.482 3.652C184.983 4.29733 184.44 5.26533 183.854 6.556C183.267 7.81733 182.651 9.40133 182.006 11.308C181.654 12.3347 181.316 13.376 180.994 14.432C180.671 15.488 180.348 16.5293 180.026 17.556C180.172 17.5853 180.319 17.6 180.466 17.6C180.642 17.6 180.803 17.6 180.95 17.6ZM191.927 33.484C192.484 32.076 193.217 30.316 194.127 28.204C195.065 26.092 196.121 23.6867 197.295 20.988C197.529 20.4013 197.749 19.932 197.955 19.58C198.189 19.228 198.395 18.9493 198.571 18.744C198.952 18.304 199.465 18.128 200.111 18.216L201.035 18.348C201.24 18.3773 201.416 18.4067 201.563 18.436C201.739 18.436 201.885 18.4213 202.003 18.392C201.416 18.6853 200.727 19.5213 199.935 20.9C199.172 22.2493 198.321 24.0973 197.383 26.444C197.705 26.0333 198.116 25.4907 198.615 24.816C199.113 24.112 199.744 23.3053 200.507 22.396C201.357 21.3987 202.237 20.4747 203.147 19.624C204.056 18.7733 204.936 18.348 205.787 18.348C206.461 18.348 206.945 18.568 207.239 19.008C207.532 19.448 207.679 19.9467 207.679 20.504C207.679 21.1787 207.415 21.78 206.887 22.308C206.359 22.836 205.845 23.1 205.347 23.1C205.141 23.1 204.921 23.056 204.687 22.968C204.481 22.88 204.379 22.748 204.379 22.572C204.379 22.4253 204.408 22.2933 204.467 22.176C204.525 22.0293 204.555 21.868 204.555 21.692C204.555 21.252 204.349 21.032 203.939 21.032C203.792 21.032 203.587 21.076 203.323 21.164C203.088 21.2227 202.765 21.4573 202.355 21.868C201.533 22.6307 200.639 23.5547 199.671 24.64C198.732 25.696 197.837 26.884 196.987 28.204C196.165 29.524 195.491 30.976 194.963 32.56C194.816 33 194.376 33.2347 193.643 33.264C192.645 33.3227 192.073 33.396 191.927 33.484ZM210.183 33.176C208.042 33.176 206.971 31.8707 206.971 29.26C206.971 27.9693 207.279 26.6053 207.895 25.168C208.775 23.0853 210.022 21.3253 211.635 19.888C213.219 18.48 214.715 17.776 216.123 17.776C218.294 17.776 219.379 19.052 219.379 21.604C219.379 22.924 219.056 24.3173 218.411 25.784C217.648 27.544 216.548 29.1427 215.111 30.58C213.322 32.3107 211.679 33.176 210.183 33.176ZM210.887 32.208C211.562 32.208 212.28 31.9293 213.043 31.372C214.011 30.668 215.111 29.2013 216.343 26.972C217.692 24.5667 218.367 22.6307 218.367 21.164C218.367 19.844 217.81 19.184 216.695 19.184C215.815 19.184 214.818 19.7413 213.703 20.856C212.618 21.9413 211.694 23.32 210.931 24.992C209.904 27.192 209.391 28.952 209.391 30.272C209.391 31.5627 209.89 32.208 210.887 32.208ZM218.942 33.484C219.939 31.196 221.362 27.9253 223.21 23.672C225.087 19.3893 227.405 14.1387 230.162 7.92C230.191 7.832 230.206 7.744 230.206 7.656C230.235 7.568 230.25 7.48 230.25 7.392C230.25 6.98133 230.074 6.54133 229.722 6.072H232.098C232.919 6.072 233.33 6.26267 233.33 6.644C233.33 6.84933 233.242 7.15734 233.066 7.568L225.322 25.344C225.879 24.552 227.067 23.3493 228.886 21.736C230.646 20.1813 231.907 19.2867 232.67 19.052C232.993 18.964 233.301 18.92 233.594 18.92C234.709 18.92 235.266 19.5067 235.266 20.68C235.266 20.9733 235.193 21.34 235.046 21.78C234.87 22.3373 234.474 22.8653 233.858 23.364C233.242 23.892 232.67 24.156 232.142 24.156C231.702 24.156 231.379 23.9653 231.174 23.584C231.497 23.0853 231.658 22.7187 231.658 22.484C231.658 22.2787 231.555 22.1027 231.35 21.956C231.174 21.868 230.969 21.824 230.734 21.824C230.177 21.824 229.649 22.132 229.15 22.748C228.446 23.628 228.094 24.86 228.094 26.444C228.094 27.764 228.417 28.9667 229.062 30.052C229.825 31.3427 230.793 31.988 231.966 31.988C233.139 31.988 234.269 31.2253 235.354 29.7L235.97 30.228C234.415 32.3987 232.699 33.484 230.822 33.484C230.705 33.484 230.573 33.484 230.426 33.484C230.279 33.484 230.133 33.4693 229.986 33.44C229.165 33.352 228.373 32.8827 227.61 32.032C226.642 30.976 226.158 29.6413 226.158 28.028C226.158 26.8253 226.495 25.652 227.17 24.508C225.205 26.3853 223.474 29.0693 221.978 32.56C221.802 33 221.289 33.22 220.438 33.22C220.115 33.22 219.617 33.308 218.942 33.484ZM240.689 33.176C238.548 33.176 237.477 31.8707 237.477 29.26C237.477 27.9693 237.785 26.6053 238.401 25.168C239.281 23.0853 240.528 21.3253 242.141 19.888C243.725 18.48 245.221 17.776 246.629 17.776C248.8 17.776 249.885 19.052 249.885 21.604C249.885 22.924 249.563 24.3173 248.917 25.784C248.155 27.544 247.055 29.1427 245.617 30.58C243.828 32.3107 242.185 33.176 240.689 33.176ZM241.393 32.208C242.068 32.208 242.787 31.9293 243.549 31.372C244.517 30.668 245.617 29.2013 246.849 26.972C248.199 24.5667 248.873 22.6307 248.873 21.164C248.873 19.844 248.316 19.184 247.201 19.184C246.321 19.184 245.324 19.7413 244.209 20.856C243.124 21.9413 242.2 23.32 241.437 24.992C240.411 27.192 239.897 28.952 239.897 30.272C239.897 31.5627 240.396 32.208 241.393 32.208ZM252.484 33.176C251.663 33.176 251.252 32.7507 251.252 31.9C251.252 31.372 251.428 30.6533 251.78 29.744L256.576 17.424H253.144L253.672 16.456H256.972C257.236 15.7813 257.485 15.136 257.72 14.52C257.984 13.904 258.248 13.3173 258.512 12.76C259.099 11.4107 259.641 10.2667 260.14 9.328C260.668 8.36 261.123 7.568 261.504 6.952C263.176 4.34133 265.244 3.036 267.708 3.036C268.999 3.036 269.952 3.54933 270.568 4.576C270.832 5.016 270.964 5.70533 270.964 6.644C270.964 7.172 270.891 7.612 270.744 7.964L269.996 8.008C270.055 7.71467 270.099 7.45067 270.128 7.216C270.187 6.952 270.216 6.71733 270.216 6.512C270.216 5.86667 270.069 5.38267 269.776 5.06C269.248 4.444 268.676 4.136 268.06 4.136C266.505 4.136 264.877 5.69067 263.176 8.8C262.883 9.35733 262.428 10.2813 261.812 11.572C261.196 12.8333 260.433 14.4613 259.524 16.456H265.552L265.024 17.424H259.128L254.684 29.304C254.303 30.272 254.112 31.108 254.112 31.812C254.112 32.516 254.303 32.9707 254.684 33.176H252.484ZM267.356 16.148C266.359 16.148 265.86 15.664 265.86 14.696C265.86 13.728 266.329 13.244 267.268 13.244C268.265 13.244 268.764 13.728 268.764 14.696C268.764 15.664 268.295 16.148 267.356 16.148ZM261.372 33.176C260.521 33.176 260.096 32.7507 260.096 31.9C260.096 31.372 260.272 30.6533 260.624 29.744C261.387 27.8667 262.105 26.136 262.78 24.552C263.455 22.968 264.085 21.5307 264.672 20.24C264.76 20.0933 264.804 19.932 264.804 19.756C264.804 19.3453 264.613 18.9053 264.232 18.436L266.652 18.392C267.473 18.392 267.884 18.5973 267.884 19.008C267.884 19.1253 267.855 19.2573 267.796 19.404C267.737 19.5213 267.664 19.6973 267.576 19.932L263.528 29.304C263.117 30.272 262.912 31.0933 262.912 31.768C262.912 32.472 263.132 32.9413 263.572 33.176H261.372ZM272.887 33.352C271.743 33.352 270.76 32.9853 269.939 32.252C269.499 31.8413 269.176 31.372 268.971 30.844C268.795 30.2867 268.707 29.656 268.707 28.952C268.707 26.2533 269.821 23.5693 272.051 20.9C273.928 18.6413 275.879 17.512 277.903 17.512C278.577 17.512 279.149 17.688 279.619 18.04C280.117 18.4507 280.367 18.9787 280.367 19.624C280.367 21.2373 279.296 22.8507 277.155 24.464C276.48 24.9627 275.585 25.4027 274.471 25.784C273.239 26.1947 272.344 26.4 271.787 26.4C271.376 27.3973 271.171 28.4533 271.171 29.568C271.171 31.4747 271.875 32.428 273.283 32.428C275.131 32.428 276.861 31.2253 278.475 28.82L278.651 28.556L279.399 28.864L279.267 29.128C278.533 30.5947 277.609 31.6653 276.495 32.34C275.38 33.0147 274.177 33.352 272.887 33.352ZM272.051 25.652C272.549 25.652 273.239 25.4907 274.119 25.168C274.617 24.9627 275.087 24.7427 275.527 24.508C275.996 24.2733 276.407 24.0093 276.759 23.716C278.372 22.3667 279.179 20.944 279.179 19.448C279.179 18.8027 278.944 18.48 278.475 18.48C277.653 18.48 276.407 19.492 274.735 21.516C273.884 22.5427 272.989 23.9213 272.051 25.652ZM284.707 33.484C282.742 33.484 281.759 32.2667 281.759 29.832C281.759 28.4533 282.067 27.0013 282.683 25.476C283.152 24.332 283.622 23.2173 284.091 22.132C284.59 21.0467 285.074 20.0053 285.543 19.008C285.866 18.392 286.438 18.084 287.259 18.084H289.943C289.415 18.4653 288.916 18.964 288.447 19.58C287.978 20.196 287.538 20.9293 287.127 21.78C285.22 25.652 284.267 28.424 284.267 30.096C284.267 31.3867 284.78 32.032 285.807 32.032C287.567 32.032 289.415 29.612 291.351 24.772C290.97 23.98 290.779 23.0413 290.779 21.956C290.779 21.428 290.852 20.9 290.999 20.372C291.322 19.2867 291.806 18.4653 292.451 17.908C293.038 17.38 293.58 17.116 294.079 17.116C294.607 17.116 294.871 17.3507 294.871 17.82L294.651 18.612C294.006 20.6067 293.39 22.3667 292.803 23.892C292.246 25.388 291.703 26.6493 291.175 27.676C289.151 31.548 286.995 33.484 284.707 33.484ZM305.565 33.264C304.919 33.264 304.391 33.0733 303.981 32.692C303.394 32.1933 303.101 31.3573 303.101 30.184C303.101 29.4213 303.233 28.556 303.497 27.588C302.499 29.26 301.458 30.624 300.373 31.68C299.258 32.7067 298.261 33.22 297.381 33.22C296.618 33.22 296.017 32.8827 295.577 32.208C295.107 31.5627 294.873 30.668 294.873 29.524C294.873 26.7373 296.119 23.8627 298.613 20.9C299.023 20.4013 299.493 19.9467 300.021 19.536C300.549 19.1253 301.121 18.7587 301.737 18.436C302.998 17.7907 304.215 17.468 305.389 17.468C306.826 17.468 307.97 17.9373 308.821 18.876C309.026 19.0813 309.129 19.316 309.129 19.58C309.129 20.0787 308.865 20.2693 308.337 20.152C308.043 19.096 307.354 18.568 306.269 18.568C305.037 18.568 303.585 19.4333 301.913 21.164C301.326 21.8093 300.769 22.484 300.241 23.188C299.713 23.8627 299.214 24.5813 298.745 25.344C297.483 27.456 296.853 29.172 296.853 30.492C296.853 31.4893 297.234 31.988 297.997 31.988C298.847 31.988 299.83 31.3427 300.945 30.052C301.561 29.348 302.191 28.4827 302.837 27.456C303.482 26.4293 304.157 25.2413 304.861 23.892C305.154 23.3347 305.418 22.88 305.653 22.528C305.887 22.176 306.078 21.912 306.225 21.736C306.694 21.2667 307.251 21.0467 307.897 21.076L308.777 21.208C309.158 21.296 309.481 21.3107 309.745 21.252C309.481 21.516 309.158 21.9413 308.777 22.528C308.425 23.0853 308.014 23.8187 307.545 24.728C307.046 25.696 306.635 26.576 306.313 27.368C305.99 28.16 305.77 28.864 305.653 29.48C305.594 29.7733 305.55 30.052 305.521 30.316C305.491 30.5507 305.477 30.7707 305.477 30.976C305.477 31.7387 305.682 32.12 306.093 32.12C306.679 32.12 307.486 31.4747 308.513 30.184L308.689 29.964L309.305 30.36L309.129 30.624C307.926 32.384 306.738 33.264 305.565 33.264Z" fill="black"/>
</svg>
