<svg width="308" height="44" viewBox="0 0 308 44" fill="none" xmlns="http://www.w3.org/2000/svg">
<path d="M9.15169 36.344C8.15436 36.344 7.15702 36.2267 6.15969 35.992C5.19169 35.7573 4.28236 35.376 3.43169 34.848C2.37569 34.2027 1.53969 33.3227 0.923689 32.208C0.307689 31.1227 -0.000310794 29.9787 -0.000310794 28.776C-0.000310794 28.5707 0.0436892 28.4533 0.131689 28.424C0.219689 28.4827 0.293023 28.6147 0.351689 28.82C0.410356 28.996 0.498356 29.084 0.615689 29.084C0.762356 29.084 0.879689 28.9813 0.967689 28.776C1.05569 28.5413 1.11436 28.3947 1.14369 28.336C1.29036 28.0133 1.40769 27.764 1.49569 27.588C1.58369 27.412 1.78902 27.2213 2.11169 27.016C2.22902 26.9573 2.41969 26.8693 2.68369 26.752C2.97702 26.6347 3.25569 26.532 3.51969 26.444C3.81302 26.3267 4.00369 26.268 4.09169 26.268C4.12102 26.268 4.13569 26.2827 4.13569 26.312C4.13569 26.3707 3.95969 26.4733 3.60769 26.62C3.28502 26.7667 2.94769 27.0013 2.59569 27.324C2.27302 27.6173 2.11169 28.0427 2.11169 28.6C2.11169 28.688 2.14102 28.8493 2.19969 29.084C2.72769 31.1373 3.75436 32.6187 5.27969 33.528C6.80502 34.4667 8.56502 34.936 10.5597 34.936C12.3784 34.936 14.1824 34.628 15.9717 34.012C17.761 33.396 19.4624 32.5747 21.0757 31.548C22.689 30.5507 24.1264 29.436 25.3877 28.204C26.5904 27.06 27.7637 25.9013 28.9077 24.728C30.081 23.5253 31.2104 22.308 32.2957 21.076L24.4197 20.68C24.2437 20.68 24.0677 20.68 23.8917 20.68C23.7157 20.6507 23.5397 20.636 23.3637 20.636C22.689 20.636 21.897 20.724 20.9877 20.9C20.0784 21.0467 19.4037 21.4133 18.9637 22C18.7584 22.2933 18.597 22.6307 18.4797 23.012C18.3624 23.3933 18.245 23.76 18.1277 24.112C17.9517 24.0533 17.7904 23.9507 17.6437 23.804C17.497 23.628 17.4237 23.4373 17.4237 23.232C17.4237 22.9093 17.585 22.5867 17.9077 22.264C18.2597 21.9413 18.641 21.6627 19.0517 21.428C19.4624 21.164 19.7997 20.9587 20.0637 20.812C21.0024 20.3133 21.9704 19.9027 22.9677 19.58C23.965 19.2573 25.0064 19.096 26.0917 19.096C27.3824 19.096 28.6584 19.14 29.9197 19.228C31.2104 19.2867 32.4864 19.3453 33.7477 19.404C35.7424 17.0573 37.649 14.6667 39.4677 12.232C41.3157 9.79733 43.3104 7.48 45.4517 5.28C43.8384 4.60533 42.0637 3.98933 40.1277 3.432C38.221 2.84533 36.2704 2.39067 34.2757 2.068C32.3104 1.716 30.4477 1.54 28.6877 1.54C27.6317 1.54 26.4877 1.64267 25.2557 1.848C24.053 2.024 22.9237 2.376 21.8677 2.904C20.8117 3.40267 19.961 4.136 19.3157 5.104C18.7877 5.83733 18.5237 6.688 18.5237 7.656C18.5237 8.888 18.8904 9.92933 19.6237 10.78C20.357 11.6013 21.2664 12.2173 22.3517 12.628C23.437 13.0387 24.5224 13.244 25.6077 13.244C26.0477 13.244 26.4584 13.156 26.8397 12.98C27.221 12.7747 27.5584 12.5253 27.8517 12.232C27.9397 12.2613 27.9837 12.32 27.9837 12.408C27.9837 12.4373 27.969 12.4813 27.9397 12.54C27.9397 12.5693 27.9397 12.6133 27.9397 12.672C27.5584 13.2293 27.045 13.6107 26.3997 13.816C25.7544 13.992 25.109 14.08 24.4637 14.08C23.2317 14.08 22.029 13.8453 20.8557 13.376C19.7117 12.9067 18.7584 12.2027 17.9957 11.264C17.2624 10.3253 16.8957 9.16667 16.8957 7.788C16.8957 7.20133 16.969 6.644 17.1157 6.116C17.2917 5.55867 17.5264 5.03067 17.8197 4.532C18.5237 3.35866 19.4624 2.44933 20.6357 1.804C21.809 1.15867 23.0704 0.703999 24.4197 0.439999C25.769 0.146666 27.0744 -4.76837e-07 28.3357 -4.76837e-07C30.301 -4.76837e-07 32.325 0.219999 34.4077 0.659999C36.4904 1.1 38.5437 1.672 40.5677 2.376C42.621 3.05067 44.5424 3.75467 46.3317 4.488C46.625 4.25333 46.9917 4.004 47.4317 3.74C47.8717 3.44667 48.2824 3.3 48.6637 3.3C49.0744 3.3 49.397 3.432 49.6317 3.696C49.8664 3.93067 49.9837 4.25333 49.9837 4.664C49.9837 4.78133 49.969 4.91333 49.9397 5.06C49.9104 5.17733 49.881 5.30933 49.8517 5.456C49.7637 5.95467 49.6464 6.27733 49.4997 6.424C49.353 6.57067 49.1917 6.688 49.0157 6.776C48.869 6.83467 48.6784 7.05467 48.4437 7.436C48.0037 8.16933 47.4904 9.25467 46.9037 10.692C46.3464 12.1 45.7744 13.684 45.1877 15.444C44.601 17.1747 44.0584 18.9347 43.5597 20.724C43.061 22.484 42.6504 24.112 42.3277 25.608C42.0344 27.104 41.8877 28.3067 41.8877 29.216C41.8877 29.5973 41.917 30.008 41.9757 30.448C42.0637 30.888 42.225 31.2547 42.4597 31.548C42.7237 31.8707 43.105 32.032 43.6037 32.032C44.0144 32.032 44.3664 31.9147 44.6597 31.68C44.953 31.4747 45.2317 31.2253 45.4957 30.932C45.5837 30.8733 45.6277 30.9173 45.6277 31.064V31.152C45.6277 31.592 45.3637 31.9733 44.8357 32.296C44.337 32.648 43.765 32.912 43.1197 33.088C42.5037 33.264 42.005 33.352 41.6237 33.352C40.6264 33.352 40.0104 33.0293 39.7757 32.384C39.541 31.768 39.4237 31.0347 39.4237 30.184C39.4237 29.0987 39.541 27.9107 39.7757 26.62C40.0104 25.3293 40.3037 24.0533 40.6557 22.792C41.037 21.5013 41.4037 20.328 41.7557 19.272L39.9077 21.032C39.321 21.0907 38.7344 21.1347 38.1477 21.164C37.561 21.164 36.9744 21.164 36.3877 21.164C35.9184 21.164 35.449 21.164 34.9797 21.164C34.5397 21.164 34.085 21.1493 33.6157 21.12C32.149 22.7627 30.653 24.4053 29.1277 26.048C27.6024 27.6907 25.9304 29.1427 24.1117 30.404C22.733 31.372 21.2077 32.3107 19.5357 33.22C17.893 34.1293 16.1917 34.8773 14.4317 35.464C12.6717 36.0507 10.9117 36.344 9.15169 36.344ZM38.5437 19.624C39.101 19.624 39.6437 19.6093 40.1717 19.58C40.6997 19.5213 41.2277 19.4187 41.7557 19.272C42.577 16.8667 43.4864 14.5053 44.4837 12.188C45.5104 9.87067 46.405 7.50933 47.1677 5.104L35.0237 19.492C35.6104 19.5213 36.197 19.5507 36.7837 19.58C37.3704 19.6093 37.957 19.624 38.5437 19.624ZM46.2691 31.46C46.2398 31.46 46.2251 31.4453 46.2251 31.416C46.2251 31.2987 46.2838 31.1813 46.4011 31.064C46.4891 30.9467 46.5478 30.8587 46.5771 30.8C46.7825 30.4773 47.0318 29.9347 47.3251 29.172C47.5891 28.38 47.8531 27.5 48.1171 26.532C48.4105 25.5347 48.6745 24.5373 48.9091 23.54C49.1731 22.5133 49.4078 21.5747 49.6131 20.724C49.8185 19.8733 49.9651 19.228 50.0531 18.788C50.1118 18.5533 50.1705 18.2453 50.2291 17.864C50.2878 17.4827 50.3758 17.1013 50.4931 16.72C50.6105 16.3387 50.7425 16.0893 50.8891 15.972C51.1825 15.7373 51.5785 15.532 52.0771 15.356C52.6051 15.18 53.1478 15.048 53.7051 14.96C54.2625 14.8427 54.7171 14.784 55.0691 14.784C55.1278 14.784 55.2011 14.8133 55.2891 14.872C55.3771 14.9307 55.4358 14.9893 55.4651 15.048V15.18C55.4651 15.268 55.4358 15.312 55.3771 15.312C55.3185 15.2827 55.2598 15.268 55.2011 15.268C54.5558 15.268 53.9838 15.6347 53.4851 16.368C52.9865 17.072 52.5611 17.952 52.2091 19.008C51.8571 20.0347 51.5638 21.032 51.3291 22C51.0945 22.968 50.9185 23.7013 50.8011 24.2C51.7398 22.5867 52.8105 21.0467 54.0131 19.58C55.2451 18.084 56.6825 16.8813 58.3251 15.972C58.5305 15.8547 58.7651 15.7373 59.0291 15.62C59.2931 15.4733 59.5278 15.4 59.7331 15.4C60.1145 15.4 60.3491 15.576 60.4371 15.928C60.5251 16.2507 60.5691 16.5587 60.5691 16.852C60.5691 17.2333 60.4371 17.7907 60.1731 18.524C59.9091 19.2573 59.6011 19.9907 59.2491 20.724C58.9265 21.428 58.6771 21.9853 58.5011 22.396C58.3251 22.8653 58.1198 23.4667 57.8851 24.2C57.6505 24.9333 57.4451 25.6667 57.2691 26.4C57.0931 27.1333 57.0051 27.7493 57.0051 28.248C57.0051 28.4533 57.0345 28.688 57.0931 28.952C57.1518 29.216 57.3131 29.348 57.5771 29.348C57.7238 29.348 57.8411 29.3187 57.9291 29.26C58.0465 29.2013 58.1638 29.1427 58.2811 29.084C58.9558 28.7027 59.6011 28.1893 60.2171 27.544C60.8625 26.8693 61.4491 26.1507 61.9771 25.388C62.5051 24.596 62.9451 23.8773 63.2971 23.232C63.3265 23.2613 63.3411 23.32 63.3411 23.408C63.3411 23.584 63.2385 23.848 63.0331 24.2C62.8278 24.5227 62.5931 24.8747 62.3291 25.256C62.0651 25.6373 61.8158 25.9747 61.5811 26.268C61.3758 26.5613 61.2731 26.7373 61.2731 26.796C61.2438 27.0013 61.1998 27.1773 61.1411 27.324C61.0825 27.4413 61.0091 27.6027 60.9211 27.808C60.5691 28.16 60.0558 28.6 59.3811 29.128C58.7358 29.6267 58.0611 30.0813 57.3571 30.492C56.6825 30.8733 56.0811 31.064 55.5531 31.064C55.0838 31.064 54.7611 30.888 54.5851 30.536C54.4385 30.1547 54.3651 29.7587 54.3651 29.348C54.3651 28.556 54.5265 27.6173 54.8491 26.532C55.1718 25.4173 55.5531 24.3173 55.9931 23.232C56.4331 22.1173 56.7998 21.1787 57.0931 20.416C57.1811 20.1813 57.3131 19.8147 57.4891 19.316C57.6945 18.8173 57.7971 18.4653 57.7971 18.26C57.7971 18.1133 57.7678 17.952 57.7091 17.776C57.6798 17.6 57.5478 17.512 57.3131 17.512C57.0198 17.512 56.6385 17.7027 56.1691 18.084C55.7291 18.4653 55.3918 18.7733 55.1571 19.008C53.8958 20.416 52.8105 21.9853 51.9011 23.716C50.9918 25.4173 50.2291 27.1773 49.6131 28.996C49.5251 29.2307 49.4665 29.4067 49.4371 29.524C49.4371 29.612 49.3198 29.7293 49.0851 29.876C48.9971 29.9347 48.7185 30.096 48.2491 30.36C47.8091 30.624 47.3838 30.8733 46.9731 31.108C46.5331 31.3427 46.2985 31.46 46.2691 31.46ZM63.3621 30.976C62.8928 30.976 62.5848 30.8 62.4381 30.448C62.3208 30.0667 62.2621 29.6853 62.2621 29.304C62.2621 27.9253 62.5261 26.444 63.0541 24.86C63.5821 23.276 64.2714 21.7653 65.1221 20.328C65.9728 18.8613 66.8968 17.6587 67.8941 16.72C68.9501 15.752 70.1968 15.268 71.6341 15.268C72.2208 15.268 72.7928 15.3413 73.3501 15.488C73.9368 15.6053 74.5088 15.7813 75.0661 16.016C75.5648 15.664 76.1074 15.356 76.6941 15.092C77.2808 14.828 77.8821 14.696 78.4981 14.696C78.6448 14.696 78.7621 14.784 78.8501 14.96V15.092C78.8501 15.18 78.8061 15.224 78.7181 15.224C78.6594 15.1947 78.6008 15.18 78.5421 15.18C78.0728 15.18 77.5594 15.5467 77.0021 16.28C76.4448 16.984 75.8874 17.8933 75.3301 19.008C74.7728 20.1227 74.2594 21.296 73.7901 22.528C73.3501 23.76 72.9834 24.8893 72.6901 25.916C72.4261 26.9427 72.2941 27.72 72.2941 28.248C72.2941 28.4533 72.3234 28.688 72.3821 28.952C72.4701 29.216 72.6461 29.348 72.9101 29.348C73.0568 29.348 73.1741 29.3187 73.2621 29.26C73.3794 29.2013 73.4968 29.1427 73.6141 29.084C74.2594 28.7027 74.8901 28.1893 75.5061 27.544C76.1514 26.8693 76.7381 26.1507 77.2661 25.388C77.8234 24.596 78.2781 23.8773 78.6301 23.232C78.6594 23.2613 78.6741 23.32 78.6741 23.408C78.6741 23.584 78.5714 23.848 78.3661 24.2C78.1608 24.5227 77.9261 24.8747 77.6621 25.256C77.3981 25.6373 77.1488 25.9747 76.9141 26.268C76.7088 26.5613 76.6061 26.7373 76.6061 26.796C76.5768 27.0013 76.5328 27.1773 76.4741 27.324C76.4154 27.4413 76.3274 27.6027 76.2101 27.808C75.8288 28.1893 75.3448 28.6293 74.7581 29.128C74.1714 29.6267 73.5554 30.0667 72.9101 30.448C72.2941 30.8 71.6928 30.976 71.1061 30.976C70.1968 30.976 69.7421 30.492 69.7421 29.524C69.7421 28.9373 69.8594 28.2627 70.0941 27.5C70.3581 26.708 70.6514 25.9307 70.9741 25.168C71.3261 24.376 71.6341 23.716 71.8981 23.188C71.8981 23.1587 71.8981 23.1147 71.8981 23.056C71.8981 22.9973 71.8834 22.968 71.8541 22.968C71.8248 22.968 71.7808 22.9973 71.7221 23.056C71.3701 23.5253 70.8568 24.2 70.1821 25.08C69.5074 25.96 68.7594 26.8547 67.9381 27.764C67.1461 28.644 66.3394 29.4067 65.5181 30.052C64.6968 30.668 63.9781 30.976 63.3621 30.976ZM65.2981 29.084C65.6208 29.084 66.0168 28.8787 66.4861 28.468C66.9848 28.028 67.4981 27.5147 68.0261 26.928C68.5834 26.312 69.0674 25.7253 69.4781 25.168C69.9181 24.6107 70.2261 24.2 70.4021 23.936C70.7541 23.408 71.1501 22.748 71.5901 21.956C72.0594 21.164 72.4554 20.3427 72.7781 19.492C73.1301 18.6413 73.3061 17.9227 73.3061 17.336C73.3061 16.4267 72.8514 15.972 71.9421 15.972C71.4141 15.972 70.8568 16.2067 70.2701 16.676C69.6834 17.1453 69.2141 17.5707 68.8621 17.952C68.4808 18.4213 68.0408 19.096 67.5421 19.976C67.0728 20.856 66.6328 21.8093 66.2221 22.836C65.8114 23.8627 65.4594 24.8453 65.1661 25.784C64.9021 26.7227 64.7701 27.5 64.7701 28.116C64.7701 28.292 64.7994 28.4973 64.8581 28.732C64.9168 28.9667 65.0634 29.084 65.2981 29.084ZM78.9405 31.24C78.3832 31.24 77.7672 31.1373 77.0925 30.932C76.4178 30.7267 75.9192 30.3453 75.5965 29.788V29.7C75.5965 29.5533 75.7872 29.3333 76.1685 29.04C76.5205 28.7173 76.9018 28.4093 77.3125 28.116C77.7232 27.7933 77.9872 27.5587 78.1045 27.412L78.4125 27.324L78.5005 27.5C78.2952 27.676 78.1925 27.8667 78.1925 28.072C78.1925 28.512 78.3538 28.8787 78.6765 29.172C79.0285 29.4653 79.4245 29.6853 79.8645 29.832C80.3338 29.9787 80.7445 30.052 81.0965 30.052C81.5072 30.052 82.0205 29.9347 82.6365 29.7C83.2818 29.4653 83.8538 29.1427 84.3525 28.732C84.8512 28.3213 85.1005 27.8667 85.1005 27.368C85.1005 26.6053 84.8658 25.9453 84.3965 25.388C83.9272 24.8307 83.3845 24.3027 82.7685 23.804C82.1525 23.3053 81.6098 22.7773 81.1405 22.22C80.6712 21.6627 80.4365 21.0173 80.4365 20.284C80.4365 19.4333 80.6858 18.6707 81.1845 17.996C81.7125 17.292 82.3725 16.7053 83.1645 16.236C83.9858 15.7373 84.8365 15.3707 85.7165 15.136C86.5965 14.872 87.4032 14.74 88.1365 14.74C88.2538 14.74 88.5178 14.7693 88.9285 14.828C89.3392 14.8573 89.7205 14.9307 90.0725 15.048C90.4538 15.136 90.6445 15.268 90.6445 15.444C90.6445 15.5027 90.6298 15.532 90.6005 15.532H90.5125L90.1605 15.444C90.2485 15.6493 90.2925 15.8987 90.2925 16.192C90.2925 16.456 90.2338 16.7933 90.1165 17.204C89.9992 17.6147 89.8672 17.9373 89.7205 18.172C89.6912 18.2307 89.5445 18.4213 89.2805 18.744C89.0165 19.0667 88.7525 19.3747 88.4885 19.668C88.2245 19.9613 88.0632 20.108 88.0045 20.108L87.9605 20.02C88.0192 19.8733 88.2098 19.624 88.5325 19.272C88.8552 18.8907 89.0165 18.4067 89.0165 17.82C89.0165 17.204 88.7378 16.7053 88.1805 16.324C87.6232 15.9133 87.0512 15.708 86.4645 15.708C85.9072 15.708 85.3205 15.884 84.7045 16.236C84.1178 16.588 83.6192 17.0427 83.2085 17.6C82.8272 18.1573 82.6365 18.7293 82.6365 19.316C82.6365 19.844 82.8858 20.4013 83.3845 20.988C83.9125 21.5453 84.4992 22.1173 85.1445 22.704C85.8192 23.2613 86.4058 23.8187 86.9045 24.376C87.4325 24.9333 87.6965 25.4613 87.6965 25.96V26.092C87.6965 26.8253 87.3738 27.5147 86.7285 28.16C86.0832 28.776 85.2765 29.3187 84.3085 29.788C83.3405 30.2573 82.3578 30.624 81.3605 30.888C80.3925 31.1227 79.5858 31.24 78.9405 31.24ZM91.596 31.02C91.1267 31.02 90.804 30.9027 90.628 30.668C90.452 30.4333 90.364 30.096 90.364 29.656C90.364 28.8933 90.54 27.94 90.892 26.796C91.244 25.6227 91.684 24.3907 92.212 23.1C92.74 21.78 93.2533 20.5333 93.752 19.36C94.28 18.1573 94.7053 17.1747 95.028 16.412C94.6467 16.4413 94.2653 16.456 93.884 16.456C93.5027 16.456 93.1067 16.4707 92.696 16.5C92.6373 16.4413 92.608 16.3827 92.608 16.324C92.608 16.148 92.7253 15.9427 92.96 15.708C93.1947 15.4733 93.4587 15.2827 93.752 15.136C94.0747 14.96 94.3093 14.872 94.456 14.872H95.688C95.9813 14.168 96.2747 13.464 96.568 12.76C96.8907 12.056 97.184 11.352 97.448 10.648C97.5947 10.2667 97.756 9.95867 97.932 9.724C98.1373 9.46 98.416 9.21067 98.768 8.976C99.2667 8.65333 99.8827 8.38933 100.616 8.184C101.349 7.97867 101.995 7.876 102.552 7.876C102.611 7.876 102.669 7.90533 102.728 7.964C102.816 8.02267 102.875 8.06667 102.904 8.096V8.272C102.904 8.36 102.86 8.38933 102.772 8.36C102.713 8.33067 102.655 8.316 102.596 8.316C102.244 8.316 101.833 8.60933 101.364 9.196C100.895 9.75333 100.411 10.428 99.912 11.22C99.4133 12.012 98.9733 12.7747 98.592 13.508C98.24 14.212 97.9907 14.696 97.844 14.96H99.604C100.073 14.96 100.543 14.96 101.012 14.96C101.481 14.9307 101.951 14.8867 102.42 14.828L102.464 14.916C102.435 14.916 102.42 14.9307 102.42 14.96C102.42 14.9893 102.405 15.004 102.376 15.004C102.288 15.092 102.068 15.2387 101.716 15.444C101.364 15.62 101.012 15.7813 100.66 15.928C100.308 16.0747 100.059 16.1627 99.912 16.192C99.4427 16.2507 98.9733 16.2947 98.504 16.324C98.064 16.3533 97.6093 16.368 97.14 16.368C96.8467 17.0133 96.4653 17.864 95.996 18.92C95.5267 19.976 95.0573 21.1053 94.588 22.308C94.1187 23.4813 93.7227 24.6107 93.4 25.696C93.1067 26.752 92.96 27.632 92.96 28.336C92.96 28.512 92.9893 28.7173 93.048 28.952C93.1067 29.1867 93.2533 29.304 93.488 29.304C93.6933 29.304 93.8987 29.2307 94.104 29.084C94.7493 28.7027 95.38 28.1893 95.996 27.544C96.6413 26.8693 97.228 26.1507 97.756 25.388C98.3133 24.596 98.7533 23.8773 99.076 23.232C99.1347 23.2613 99.164 23.32 99.164 23.408C99.164 23.584 99.0613 23.848 98.856 24.2C98.6507 24.5227 98.416 24.8747 98.152 25.256C97.888 25.6373 97.6387 25.9747 97.404 26.268C97.1987 26.5613 97.096 26.7373 97.096 26.796C97.0667 27.0307 97.008 27.2067 96.92 27.324C96.8613 27.412 96.788 27.5733 96.7 27.808C96.3187 28.16 95.8347 28.6 95.248 29.128C94.6613 29.6267 94.0453 30.0667 93.4 30.448C92.7547 30.8293 92.1533 31.02 91.596 31.02ZM100.721 30.976C100.252 30.976 99.9435 30.8 99.7968 30.448C99.6795 30.0667 99.6208 29.6853 99.6208 29.304C99.6208 27.9253 99.8848 26.444 100.413 24.86C100.941 23.276 101.63 21.7653 102.481 20.328C103.332 18.8613 104.256 17.6587 105.253 16.72C106.309 15.752 107.556 15.268 108.993 15.268C109.58 15.268 110.152 15.3413 110.709 15.488C111.296 15.6053 111.868 15.7813 112.425 16.016C112.924 15.664 113.466 15.356 114.053 15.092C114.64 14.828 115.241 14.696 115.857 14.696C116.004 14.696 116.121 14.784 116.209 14.96V15.092C116.209 15.18 116.165 15.224 116.077 15.224C116.018 15.1947 115.96 15.18 115.901 15.18C115.432 15.18 114.918 15.5467 114.361 16.28C113.804 16.984 113.246 17.8933 112.689 19.008C112.132 20.1227 111.618 21.296 111.149 22.528C110.709 23.76 110.342 24.8893 110.049 25.916C109.785 26.9427 109.653 27.72 109.653 28.248C109.653 28.4533 109.682 28.688 109.741 28.952C109.829 29.216 110.005 29.348 110.269 29.348C110.416 29.348 110.533 29.3187 110.621 29.26C110.738 29.2013 110.856 29.1427 110.973 29.084C111.618 28.7027 112.249 28.1893 112.865 27.544C113.51 26.8693 114.097 26.1507 114.625 25.388C115.182 24.596 115.637 23.8773 115.989 23.232C116.018 23.2613 116.033 23.32 116.033 23.408C116.033 23.584 115.93 23.848 115.725 24.2C115.52 24.5227 115.285 24.8747 115.021 25.256C114.757 25.6373 114.508 25.9747 114.273 26.268C114.068 26.5613 113.965 26.7373 113.965 26.796C113.936 27.0013 113.892 27.1773 113.833 27.324C113.774 27.4413 113.686 27.6027 113.569 27.808C113.188 28.1893 112.704 28.6293 112.117 29.128C111.53 29.6267 110.914 30.0667 110.269 30.448C109.653 30.8 109.052 30.976 108.465 30.976C107.556 30.976 107.101 30.492 107.101 29.524C107.101 28.9373 107.218 28.2627 107.453 27.5C107.717 26.708 108.01 25.9307 108.333 25.168C108.685 24.376 108.993 23.716 109.257 23.188C109.257 23.1587 109.257 23.1147 109.257 23.056C109.257 22.9973 109.242 22.968 109.213 22.968C109.184 22.968 109.14 22.9973 109.081 23.056C108.729 23.5253 108.216 24.2 107.541 25.08C106.866 25.96 106.118 26.8547 105.297 27.764C104.505 28.644 103.698 29.4067 102.877 30.052C102.056 30.668 101.337 30.976 100.721 30.976ZM102.657 29.084C102.98 29.084 103.376 28.8787 103.845 28.468C104.344 28.028 104.857 27.5147 105.385 26.928C105.942 26.312 106.426 25.7253 106.837 25.168C107.277 24.6107 107.585 24.2 107.761 23.936C108.113 23.408 108.509 22.748 108.949 21.956C109.418 21.164 109.814 20.3427 110.137 19.492C110.489 18.6413 110.665 17.9227 110.665 17.336C110.665 16.4267 110.21 15.972 109.301 15.972C108.773 15.972 108.216 16.2067 107.629 16.676C107.042 17.1453 106.573 17.5707 106.221 17.952C105.84 18.4213 105.4 19.096 104.901 19.976C104.432 20.856 103.992 21.8093 103.581 22.836C103.17 23.8627 102.818 24.8453 102.525 25.784C102.261 26.7227 102.129 27.5 102.129 28.116C102.129 28.292 102.158 28.4973 102.217 28.732C102.276 28.9667 102.422 29.084 102.657 29.084ZM116.299 31.24C115.742 31.24 115.126 31.1373 114.451 30.932C113.777 30.7267 113.278 30.3453 112.955 29.788V29.7C112.955 29.5533 113.146 29.3333 113.527 29.04C113.879 28.7173 114.261 28.4093 114.671 28.116C115.082 27.7933 115.346 27.5587 115.463 27.412L115.771 27.324L115.859 27.5C115.654 27.676 115.551 27.8667 115.551 28.072C115.551 28.512 115.713 28.8787 116.035 29.172C116.387 29.4653 116.783 29.6853 117.223 29.832C117.693 29.9787 118.103 30.052 118.455 30.052C118.866 30.052 119.379 29.9347 119.995 29.7C120.641 29.4653 121.213 29.1427 121.711 28.732C122.21 28.3213 122.459 27.8667 122.459 27.368C122.459 26.6053 122.225 25.9453 121.755 25.388C121.286 24.8307 120.743 24.3027 120.127 23.804C119.511 23.3053 118.969 22.7773 118.499 22.22C118.03 21.6627 117.795 21.0173 117.795 20.284C117.795 19.4333 118.045 18.6707 118.543 17.996C119.071 17.292 119.731 16.7053 120.523 16.236C121.345 15.7373 122.195 15.3707 123.075 15.136C123.955 14.872 124.762 14.74 125.495 14.74C125.613 14.74 125.877 14.7693 126.287 14.828C126.698 14.8573 127.079 14.9307 127.431 15.048C127.813 15.136 128.003 15.268 128.003 15.444C128.003 15.5027 127.989 15.532 127.959 15.532H127.871L127.519 15.444C127.607 15.6493 127.651 15.8987 127.651 16.192C127.651 16.456 127.593 16.7933 127.475 17.204C127.358 17.6147 127.226 17.9373 127.079 18.172C127.05 18.2307 126.903 18.4213 126.639 18.744C126.375 19.0667 126.111 19.3747 125.847 19.668C125.583 19.9613 125.422 20.108 125.363 20.108L125.319 20.02C125.378 19.8733 125.569 19.624 125.891 19.272C126.214 18.8907 126.375 18.4067 126.375 17.82C126.375 17.204 126.097 16.7053 125.539 16.324C124.982 15.9133 124.41 15.708 123.823 15.708C123.266 15.708 122.679 15.884 122.063 16.236C121.477 16.588 120.978 17.0427 120.567 17.6C120.186 18.1573 119.995 18.7293 119.995 19.316C119.995 19.844 120.245 20.4013 120.743 20.988C121.271 21.5453 121.858 22.1173 122.503 22.704C123.178 23.2613 123.765 23.8187 124.263 24.376C124.791 24.9333 125.055 25.4613 125.055 25.96V26.092C125.055 26.8253 124.733 27.5147 124.087 28.16C123.442 28.776 122.635 29.3187 121.667 29.788C120.699 30.2573 119.717 30.624 118.719 30.888C117.751 31.1227 116.945 31.24 116.299 31.24ZM136.127 11.968C135.892 11.968 135.525 11.88 135.027 11.704C134.557 11.4987 134.323 11.2493 134.323 10.956C134.323 10.9267 134.323 10.912 134.323 10.912C134.352 10.8827 134.367 10.8533 134.367 10.824C134.513 10.5307 134.836 10.3547 135.335 10.296C135.863 10.2373 136.259 10.1493 136.523 10.032C137.109 9.79733 137.681 9.60667 138.239 9.46C138.796 9.31333 139.324 9.04933 139.823 8.668C139.94 8.72667 139.999 8.78533 139.999 8.844C139.999 8.96133 139.867 9.12267 139.603 9.328C139.368 9.53333 139.207 9.70933 139.119 9.856C139.001 10.032 138.737 10.296 138.327 10.648C137.945 10.9707 137.535 11.2787 137.095 11.572C136.655 11.836 136.332 11.968 136.127 11.968ZM128.691 31.02C128.221 31.02 127.899 30.9027 127.723 30.668C127.547 30.4333 127.459 30.096 127.459 29.656C127.459 28.688 127.649 27.5147 128.031 26.136C128.441 24.7573 128.896 23.364 129.395 21.956C129.893 20.5187 130.289 19.2427 130.583 18.128C130.7 17.7173 130.979 17.4387 131.419 17.292C131.888 17.116 132.284 16.9107 132.607 16.676C133.076 16.3533 133.575 16.0893 134.103 15.884C134.631 15.6493 135.188 15.532 135.775 15.532C135.921 15.532 136.009 15.5613 136.039 15.62C136.097 15.6787 136.127 15.7227 136.127 15.752C136.127 15.928 136.024 16.016 135.819 16.016C135.408 16.016 134.983 16.2653 134.543 16.764C134.103 17.2333 133.663 17.8493 133.223 18.612C132.783 19.3747 132.387 20.1667 132.035 20.988C131.683 21.8093 131.375 22.572 131.111 23.276C130.847 23.9507 130.671 24.4493 130.583 24.772C130.436 25.2413 130.289 25.7987 130.143 26.444C129.996 27.06 129.923 27.632 129.923 28.16C129.923 28.3653 129.952 28.6147 130.011 28.908C130.069 29.172 130.245 29.304 130.539 29.304C130.744 29.304 130.964 29.2307 131.199 29.084C131.844 28.7027 132.475 28.1893 133.091 27.544C133.736 26.8693 134.323 26.1507 134.851 25.388C135.408 24.596 135.848 23.8773 136.171 23.232C136.229 23.2613 136.259 23.32 136.259 23.408C136.259 23.584 136.156 23.848 135.951 24.2C135.745 24.5227 135.511 24.8747 135.247 25.256C134.983 25.6373 134.733 25.9747 134.499 26.268C134.293 26.5613 134.191 26.7373 134.191 26.796C134.161 27.0307 134.117 27.2067 134.059 27.324C134 27.412 133.912 27.5733 133.795 27.808C133.443 28.16 132.973 28.6 132.387 29.128C131.8 29.6267 131.184 30.0667 130.539 30.448C129.893 30.8293 129.277 31.02 128.691 31.02ZM136.275 30.976C135.806 30.976 135.498 30.8 135.351 30.448C135.234 30.0667 135.175 29.6853 135.175 29.304C135.175 27.9253 135.439 26.444 135.967 24.86C136.495 23.276 137.184 21.7653 138.035 20.328C138.886 18.8613 139.81 17.6587 140.807 16.72C141.863 15.752 143.11 15.268 144.547 15.268C145.134 15.268 145.706 15.3413 146.263 15.488C146.85 15.6053 147.422 15.7813 147.979 16.016C148.478 15.664 149.02 15.356 149.607 15.092C150.194 14.828 150.795 14.696 151.411 14.696C151.558 14.696 151.675 14.784 151.763 14.96V15.092C151.763 15.18 151.719 15.224 151.631 15.224C151.572 15.1947 151.514 15.18 151.455 15.18C150.986 15.18 150.472 15.5467 149.915 16.28C149.358 16.984 148.8 17.8933 148.243 19.008C147.686 20.1227 147.172 21.296 146.703 22.528C146.263 23.76 145.896 24.8893 145.603 25.916C145.339 26.9427 145.207 27.72 145.207 28.248C145.207 28.4533 145.236 28.688 145.295 28.952C145.383 29.216 145.559 29.348 145.823 29.348C145.97 29.348 146.087 29.3187 146.175 29.26C146.292 29.2013 146.41 29.1427 146.527 29.084C147.172 28.7027 147.803 28.1893 148.419 27.544C149.064 26.8693 149.651 26.1507 150.179 25.388C150.736 24.596 151.191 23.8773 151.543 23.232C151.572 23.2613 151.587 23.32 151.587 23.408C151.587 23.584 151.484 23.848 151.279 24.2C151.074 24.5227 150.839 24.8747 150.575 25.256C150.311 25.6373 150.062 25.9747 149.827 26.268C149.622 26.5613 149.519 26.7373 149.519 26.796C149.49 27.0013 149.446 27.1773 149.387 27.324C149.328 27.4413 149.24 27.6027 149.123 27.808C148.742 28.1893 148.258 28.6293 147.671 29.128C147.084 29.6267 146.468 30.0667 145.823 30.448C145.207 30.8 144.606 30.976 144.019 30.976C143.11 30.976 142.655 30.492 142.655 29.524C142.655 28.9373 142.772 28.2627 143.007 27.5C143.271 26.708 143.564 25.9307 143.887 25.168C144.239 24.376 144.547 23.716 144.811 23.188C144.811 23.1587 144.811 23.1147 144.811 23.056C144.811 22.9973 144.796 22.968 144.767 22.968C144.738 22.968 144.694 22.9973 144.635 23.056C144.283 23.5253 143.77 24.2 143.095 25.08C142.42 25.96 141.672 26.8547 140.851 27.764C140.059 28.644 139.252 29.4067 138.431 30.052C137.61 30.668 136.891 30.976 136.275 30.976ZM138.211 29.084C138.534 29.084 138.93 28.8787 139.399 28.468C139.898 28.028 140.411 27.5147 140.939 26.928C141.496 26.312 141.98 25.7253 142.391 25.168C142.831 24.6107 143.139 24.2 143.315 23.936C143.667 23.408 144.063 22.748 144.503 21.956C144.972 21.164 145.368 20.3427 145.691 19.492C146.043 18.6413 146.219 17.9227 146.219 17.336C146.219 16.4267 145.764 15.972 144.855 15.972C144.327 15.972 143.77 16.2067 143.183 16.676C142.596 17.1453 142.127 17.5707 141.775 17.952C141.394 18.4213 140.954 19.096 140.455 19.976C139.986 20.856 139.546 21.8093 139.135 22.836C138.724 23.8627 138.372 24.8453 138.079 25.784C137.815 26.7227 137.683 27.5 137.683 28.116C137.683 28.292 137.712 28.4973 137.771 28.732C137.83 28.9667 137.976 29.084 138.211 29.084ZM177.172 24.112C176.967 24.112 176.718 24.0973 176.424 24.068C176.131 24.0387 175.984 23.9653 175.984 23.848C175.984 23.672 176.146 23.4373 176.468 23.144C176.791 22.8213 177.143 22.5427 177.524 22.308C177.935 22.044 178.214 21.912 178.36 21.912C178.654 21.912 178.932 21.9267 179.196 21.956C179.49 21.9853 179.783 22 180.076 22C181.69 22 183.406 21.824 185.224 21.472C187.072 21.0907 188.7 20.504 190.108 19.712C191.106 19.1547 192.059 18.48 192.968 17.688C193.878 16.8667 194.626 15.9427 195.212 14.916C195.799 13.86 196.092 12.7307 196.092 11.528C196.092 10.824 195.96 10.1493 195.696 9.504C195.462 8.82933 195.139 8.21333 194.728 7.656C193.936 6.6 192.924 5.73467 191.692 5.06C190.46 4.38533 189.126 3.872 187.688 3.52C186.28 3.168 184.858 2.91867 183.42 2.772C181.983 2.62533 180.648 2.552 179.416 2.552C177.832 2.552 176.131 2.65467 174.312 2.86C172.494 3.036 170.719 3.40267 168.988 3.96C167.287 4.51733 165.762 5.33866 164.412 6.424C163.092 7.48 162.124 8.87333 161.508 10.604C161.303 11.22 161.2 11.8947 161.2 12.628C161.2 13.3027 161.318 13.9773 161.552 14.652C161.816 15.3267 162.271 15.8253 162.916 16.148C162.975 16.1773 163.151 16.192 163.444 16.192C163.738 16.192 163.943 16.192 164.06 16.192C164.119 16.192 164.236 16.2067 164.412 16.236C164.618 16.236 164.72 16.2947 164.72 16.412C164.72 16.588 164.574 16.7347 164.28 16.852C164.016 16.9693 163.811 17.028 163.664 17.028C163.019 17.028 162.52 16.8373 162.168 16.456C161.816 16.0747 161.523 15.884 161.288 15.884C161.259 15.884 161.23 15.8987 161.2 15.928C161.171 15.9573 161.127 16.0307 161.068 16.148C161.01 16.236 160.951 16.28 160.892 16.28C160.716 16.28 160.555 16.1333 160.408 15.84C160.291 15.5173 160.188 15.18 160.1 14.828C160.042 14.4467 160.012 14.1827 160.012 14.036C160.012 13.6253 160.056 13.156 160.144 12.628C160.262 12.1 160.379 11.6453 160.496 11.264C161.112 9.24 162.095 7.55333 163.444 6.204C164.794 4.82533 166.348 3.72533 168.108 2.904C169.898 2.05333 171.775 1.452 173.74 1.1C175.735 0.718665 177.686 0.527998 179.592 0.527998C181 0.527998 182.482 0.630665 184.036 0.835999C185.62 1.012 187.175 1.33467 188.7 1.804C190.255 2.27333 191.692 2.91867 193.012 3.74C194.362 4.532 195.491 5.52933 196.4 6.732C196.899 7.40667 197.295 8.14 197.588 8.932C197.882 9.724 198.028 10.5453 198.028 11.396C198.028 12.7747 197.691 14.0213 197.016 15.136C196.342 16.2507 195.476 17.2333 194.42 18.084C193.364 18.9347 192.264 19.6533 191.12 20.24C189.918 20.856 188.51 21.472 186.896 22.088C185.283 22.6747 183.64 23.1587 181.968 23.54C180.326 23.9213 178.815 24.112 177.436 24.112H177.172ZM160.1 36.74C159.778 36.74 159.396 36.7253 158.956 36.696C158.516 36.6667 158.164 36.5787 157.9 36.432C157.783 36.344 157.563 36.1973 157.24 35.992C156.918 35.816 156.756 35.64 156.756 35.464C156.756 35.2587 156.844 35.156 157.02 35.156C157.167 35.1853 157.24 35.0827 157.24 34.848C157.24 34.6133 157.196 34.3787 157.108 34.144C157.02 33.9093 156.976 33.6747 156.976 33.44C156.976 33.176 157.05 32.8093 157.196 32.34C157.343 31.9 157.578 31.68 157.9 31.68C157.988 31.68 158.032 31.724 158.032 31.812C158.032 32.1053 157.959 32.384 157.812 32.648C157.636 32.912 157.548 33.176 157.548 33.44C157.548 33.8507 157.724 34.2467 158.076 34.628C158.399 35.0093 158.81 35.3173 159.308 35.552C159.778 35.816 160.203 35.948 160.584 35.948C160.731 35.948 160.892 35.948 161.068 35.948C161.244 35.948 161.406 35.9333 161.552 35.904C163.019 35.6987 164.383 35.0093 165.644 33.836C166.935 32.6627 168.123 31.1813 169.208 29.392C170.323 27.5733 171.335 25.608 172.244 23.496C173.154 21.3547 173.975 19.228 174.708 17.116C175.442 15.004 176.087 13.0387 176.644 11.22C177.231 9.40133 177.715 7.92 178.096 6.776C178.243 6.30667 178.404 5.94 178.58 5.676C178.756 5.38267 179.035 5.08933 179.416 4.796C179.944 4.38533 180.56 4.092 181.264 3.916C181.998 3.71067 182.687 3.608 183.332 3.608C183.391 3.608 183.479 3.62267 183.596 3.652C183.714 3.68133 183.772 3.75467 183.772 3.872C183.772 3.98933 183.67 4.07733 183.464 4.136C183.288 4.16533 183.171 4.18 183.112 4.18C182.702 4.18 182.262 4.488 181.792 5.104C181.352 5.72 180.912 6.49733 180.472 7.436C180.032 8.37467 179.622 9.34267 179.24 10.34C178.859 11.3373 178.522 12.2467 178.228 13.068C177.964 13.86 177.774 14.4173 177.656 14.74C177.304 15.7373 176.952 16.7493 176.6 17.776C176.248 18.7733 175.882 19.7707 175.5 20.768C175.06 21.9413 174.591 23.1147 174.092 24.288C173.623 25.4613 173.08 26.6053 172.464 27.72C171.555 29.3627 170.587 30.8587 169.56 32.208C168.563 33.5867 167.36 34.672 165.952 35.464C164.574 36.2853 162.828 36.7107 160.716 36.74H160.1ZM195.879 31.46C195.82 31.46 195.791 31.4453 195.791 31.416C195.791 31.2987 195.849 31.1813 195.967 31.064C196.055 30.976 196.128 30.888 196.187 30.8C196.451 30.36 196.744 29.612 197.067 28.556C197.419 27.4707 197.756 26.2827 198.079 24.992C198.431 23.7013 198.739 22.4987 199.003 21.384C199.296 20.24 199.501 19.3747 199.619 18.788C199.677 18.5533 199.736 18.2453 199.795 17.864C199.883 17.4827 199.985 17.1013 200.103 16.72C200.22 16.3387 200.352 16.0893 200.499 15.972C200.763 15.7373 201.159 15.532 201.687 15.356C202.215 15.18 202.743 15.048 203.271 14.96C203.828 14.8427 204.283 14.784 204.635 14.784C204.693 14.784 204.767 14.8133 204.855 14.872C204.943 14.9307 205.001 14.9893 205.031 15.048L205.075 15.18C205.045 15.268 205.001 15.312 204.943 15.312C204.884 15.2827 204.825 15.268 204.767 15.268C204.209 15.268 203.696 15.5907 203.227 16.236C202.757 16.852 202.347 17.6147 201.995 18.524C201.643 19.4333 201.335 20.3133 201.071 21.164C200.836 21.9853 200.675 22.6013 200.587 23.012C200.88 22.3373 201.261 21.5747 201.731 20.724C202.229 19.844 202.801 19.008 203.447 18.216C204.092 17.3947 204.796 16.72 205.559 16.192C206.321 15.6347 207.128 15.356 207.979 15.356C208.096 15.356 208.287 15.3853 208.551 15.444C208.844 15.4733 209.108 15.5467 209.343 15.664C209.607 15.752 209.739 15.8693 209.739 16.016L209.695 16.06H209.651L209.387 15.972C209.475 16.1773 209.533 16.3827 209.563 16.588C209.592 16.7933 209.607 16.9987 209.607 17.204C209.607 17.38 209.548 17.7613 209.431 18.348C209.343 18.9347 209.211 19.492 209.035 20.02C208.888 20.5187 208.727 20.768 208.551 20.768C208.433 20.768 208.375 20.724 208.375 20.636C208.375 20.4893 208.419 20.2547 208.507 19.932C208.624 19.58 208.683 19.2573 208.683 18.964C208.683 18.436 208.551 18.0107 208.287 17.688C208.023 17.3653 207.627 17.204 207.099 17.204C206.219 17.204 205.368 17.5853 204.547 18.348C203.725 19.0813 202.977 20.0053 202.303 21.12C201.628 22.2053 201.056 23.3053 200.587 24.42C200.117 25.5347 199.795 26.444 199.619 27.148C199.501 27.5293 199.399 28.028 199.311 28.644C199.223 29.2307 199.003 29.6413 198.651 29.876C198.563 29.9053 198.284 30.052 197.815 30.316C197.375 30.58 196.949 30.8293 196.539 31.064C196.099 31.328 195.879 31.46 195.879 31.46ZM210.71 31.108C210.153 31.108 209.757 30.9613 209.522 30.668C209.317 30.3453 209.214 29.788 209.214 28.996C209.214 27.852 209.361 26.6493 209.654 25.388C209.947 24.1267 210.343 22.9093 210.842 21.736C211.341 20.5333 211.898 19.492 212.514 18.612C212.983 17.9667 213.614 17.3653 214.406 16.808C215.198 16.2507 216.049 15.796 216.958 15.444C217.867 15.092 218.718 14.916 219.51 14.916C219.774 14.916 220.097 14.96 220.478 15.048C220.859 15.1067 221.153 15.224 221.358 15.4C221.505 15.5173 221.593 15.6787 221.622 15.884C221.681 16.0893 221.71 16.28 221.71 16.456C221.71 17.2187 221.578 18.1133 221.314 19.14C221.079 20.1373 220.757 21.164 220.346 22.22C219.935 23.276 219.495 24.2733 219.026 25.212C218.557 26.1213 218.087 26.884 217.618 27.5C217.354 27.852 216.929 28.248 216.342 28.688C215.755 29.0987 215.11 29.4947 214.406 29.876C213.731 30.228 213.057 30.5213 212.382 30.756C211.707 30.9907 211.15 31.108 210.71 31.108ZM211.898 29.876C213.277 29.5827 214.391 28.9227 215.242 27.896C215.917 27.104 216.547 26.0627 217.134 24.772C217.721 23.4813 218.19 22.1467 218.542 20.768C218.923 19.3893 219.114 18.1867 219.114 17.16C219.114 17.072 219.099 16.9253 219.07 16.72C219.07 16.5147 219.026 16.3973 218.938 16.368C218.586 16.192 218.19 16.104 217.75 16.104C217.457 16.104 217.075 16.2067 216.606 16.412C216.137 16.588 215.785 16.7933 215.55 17.028C215.403 17.1747 215.257 17.38 215.11 17.644C214.993 17.8787 214.875 18.084 214.758 18.26C214.201 19.14 213.658 20.1667 213.13 21.34C212.631 22.5133 212.221 23.716 211.898 24.948C211.575 26.18 211.414 27.3387 211.414 28.424C211.414 28.776 211.443 29.0987 211.502 29.392C211.59 29.656 211.722 29.8173 211.898 29.876ZM220.708 31.46C220.678 31.46 220.664 31.4453 220.664 31.416C220.664 31.2987 220.722 31.1813 220.84 31.064C220.928 30.976 220.986 30.888 221.016 30.8C221.25 30.4187 221.5 29.92 221.764 29.304C222.028 28.6587 222.277 27.9987 222.512 27.324C222.746 26.6493 222.937 26.1067 223.084 25.696C223.7 23.9653 224.301 22.22 224.888 20.46C225.474 18.6707 226.09 16.9107 226.736 15.18C227.117 14.1533 227.557 12.9947 228.056 11.704C228.584 10.4133 229.185 9.108 229.86 7.788C230.564 6.468 231.356 5.26533 232.236 4.18C233.116 3.06533 234.098 2.17067 235.184 1.496C236.269 0.821332 237.486 0.483999 238.836 0.483999C239.158 0.483999 239.51 0.542665 239.892 0.659999C240.302 0.777332 240.596 0.982666 240.772 1.276C240.889 1.39333 240.948 1.52533 240.948 1.672C240.948 1.78933 240.904 1.848 240.816 1.848C240.61 1.76 240.42 1.59867 240.244 1.364C240.068 1.12933 239.804 1.012 239.452 1.012C238.865 1.012 238.22 1.24667 237.516 1.716C236.812 2.156 236.152 2.684 235.536 3.3C234.949 3.916 234.48 4.45867 234.128 4.928C233.13 6.27733 232.177 7.84667 231.268 9.636C230.388 11.4253 229.566 13.2587 228.804 15.136C228.07 17.0133 227.41 18.7587 226.824 20.372C227.117 19.9613 227.513 19.492 228.012 18.964C228.54 18.4067 229.112 17.864 229.728 17.336C230.344 16.808 230.96 16.368 231.576 16.016C232.221 15.664 232.793 15.488 233.292 15.488C233.849 15.488 234.304 15.664 234.656 16.016C235.008 16.368 235.184 16.8227 235.184 17.38C235.184 18.2893 234.905 19.0667 234.348 19.712C233.79 20.328 233.072 20.8267 232.192 21.208C231.341 21.5893 230.446 21.868 229.508 22.044C228.598 22.22 227.792 22.3227 227.088 22.352C227.293 22.9973 227.601 23.7747 228.012 24.684C228.422 25.564 228.921 26.444 229.508 27.324C230.124 28.1747 230.784 28.8933 231.488 29.48C232.192 30.0373 232.925 30.316 233.688 30.316C234.597 30.316 235.286 30.0373 235.756 29.48C236.254 28.9227 236.738 28.3213 237.208 27.676C237.237 27.676 237.252 27.72 237.252 27.808C237.252 27.9253 237.222 28.0427 237.164 28.16C237.105 28.2773 237.046 28.38 236.988 28.468C236.87 28.6733 236.753 28.8933 236.636 29.128C236.548 29.3333 236.43 29.5387 236.284 29.744C235.902 30.2427 235.418 30.6093 234.832 30.844C234.274 31.0787 233.688 31.196 233.072 31.196C231.752 31.196 230.593 30.844 229.596 30.14C228.628 29.4067 227.806 28.4827 227.132 27.368C226.486 26.2533 225.958 25.1387 225.548 24.024C225.342 24.6693 225.137 25.3293 224.932 26.004C224.726 26.6493 224.521 27.3093 224.316 27.984C224.286 28.1013 224.242 28.2333 224.184 28.38C224.154 28.5267 224.125 28.6733 224.096 28.82C224.066 28.8787 224.052 28.9373 224.052 28.996C224.022 29.2307 223.978 29.4067 223.92 29.524C223.89 29.612 223.758 29.7293 223.524 29.876C223.465 29.9053 223.201 30.052 222.732 30.316C222.262 30.58 221.822 30.8293 221.412 31.064C220.972 31.328 220.737 31.46 220.708 31.46ZM227.88 21.56C228.672 21.56 229.434 21.4133 230.168 21.12C230.901 20.7973 231.502 20.3427 231.972 19.756C232.441 19.14 232.676 18.4067 232.676 17.556C232.676 17.4093 232.646 17.248 232.588 17.072C232.558 16.8667 232.426 16.764 232.192 16.764C231.488 16.764 230.784 17.0573 230.08 17.644C229.405 18.2307 228.76 18.8907 228.144 19.624C227.528 20.3573 227 20.9587 226.56 21.428C226.97 21.516 227.41 21.56 227.88 21.56ZM238.509 31.108C237.952 31.108 237.556 30.9613 237.321 30.668C237.116 30.3453 237.013 29.788 237.013 28.996C237.013 27.852 237.16 26.6493 237.453 25.388C237.746 24.1267 238.142 22.9093 238.641 21.736C239.14 20.5333 239.697 19.492 240.313 18.612C240.782 17.9667 241.413 17.3653 242.205 16.808C242.997 16.2507 243.848 15.796 244.757 15.444C245.666 15.092 246.517 14.916 247.309 14.916C247.573 14.916 247.896 14.96 248.277 15.048C248.658 15.1067 248.952 15.224 249.157 15.4C249.304 15.5173 249.392 15.6787 249.421 15.884C249.48 16.0893 249.509 16.28 249.509 16.456C249.509 17.2187 249.377 18.1133 249.113 19.14C248.878 20.1373 248.556 21.164 248.145 22.22C247.734 23.276 247.294 24.2733 246.825 25.212C246.356 26.1213 245.886 26.884 245.417 27.5C245.153 27.852 244.728 28.248 244.141 28.688C243.554 29.0987 242.909 29.4947 242.205 29.876C241.53 30.228 240.856 30.5213 240.181 30.756C239.506 30.9907 238.949 31.108 238.509 31.108ZM239.697 29.876C241.076 29.5827 242.19 28.9227 243.041 27.896C243.716 27.104 244.346 26.0627 244.933 24.772C245.52 23.4813 245.989 22.1467 246.341 20.768C246.722 19.3893 246.913 18.1867 246.913 17.16C246.913 17.072 246.898 16.9253 246.869 16.72C246.869 16.5147 246.825 16.3973 246.737 16.368C246.385 16.192 245.989 16.104 245.549 16.104C245.256 16.104 244.874 16.2067 244.405 16.412C243.936 16.588 243.584 16.7933 243.349 17.028C243.202 17.1747 243.056 17.38 242.909 17.644C242.792 17.8787 242.674 18.084 242.557 18.26C242 19.14 241.457 20.1667 240.929 21.34C240.43 22.5133 240.02 23.716 239.697 24.948C239.374 26.18 239.213 27.3387 239.213 28.424C239.213 28.776 239.242 29.0987 239.301 29.392C239.389 29.656 239.521 29.8173 239.697 29.876ZM237.727 43.12C237.522 43.12 237.184 43.0467 236.715 42.9C236.216 42.7533 235.762 42.5627 235.351 42.328C234.911 42.0933 234.691 41.8587 234.691 41.624C234.691 41.5653 234.75 41.536 234.867 41.536C234.984 41.5947 235.102 41.624 235.219 41.624C235.278 41.624 235.366 41.5947 235.483 41.536C235.366 41.36 235.307 41.184 235.307 41.008C235.307 40.8613 235.351 40.7733 235.439 40.744L235.043 39.908C234.984 39.7613 234.838 39.5413 234.603 39.248C234.368 38.9547 234.251 38.7493 234.251 38.632C234.251 38.456 234.266 38.324 234.295 38.236C234.911 39.0867 235.454 39.7613 235.923 40.26C236.363 40.7587 236.891 41.1107 237.507 41.316C238.123 41.5507 238.988 41.668 240.103 41.668C241.188 41.668 242.244 41.2133 243.271 40.304C244.268 39.424 245.222 38.28 246.131 36.872C247.011 35.4933 247.818 34.012 248.551 32.428C249.284 30.844 249.915 29.3627 250.443 27.984C250.971 26.576 251.382 25.4613 251.675 24.64C252.144 23.2907 252.584 21.9413 252.995 20.592C253.435 19.2427 253.875 17.8933 254.315 16.544L251.939 16.676C251.91 16.6467 251.895 16.588 251.895 16.5C251.895 16.324 252.012 16.1187 252.247 15.884C252.482 15.6493 252.746 15.4587 253.039 15.312C253.332 15.136 253.552 15.048 253.699 15.048H254.843C255.224 13.9627 255.679 12.76 256.207 11.44C256.764 10.12 257.395 8.8 258.099 7.48C258.832 6.16 259.654 4.95733 260.563 3.872C261.502 2.75733 262.543 1.86267 263.687 1.188C264.831 0.513333 266.092 0.176 267.471 0.176C267.618 0.176 267.926 0.205333 268.395 0.263999C268.894 0.322666 269.363 0.410666 269.803 0.527998C270.243 0.615999 270.463 0.762666 270.463 0.968C270.463 1.02667 270.448 1.056 270.419 1.056C270.419 1.056 270.404 1.056 270.375 1.056C270.375 1.056 270.375 1.04133 270.375 1.012L270.067 0.968C270.184 1.232 270.243 1.584 270.243 2.024C270.243 2.22933 270.214 2.49333 270.155 2.816C270.126 3.10933 270.067 3.344 269.979 3.52C269.95 3.57867 269.847 3.76933 269.671 4.092C269.495 4.38533 269.319 4.664 269.143 4.928C268.967 5.192 268.864 5.324 268.835 5.324C268.806 5.29467 268.791 5.26533 268.791 5.236C268.791 5.20667 268.894 5.00133 269.099 4.62C269.304 4.20933 269.407 3.79867 269.407 3.388C269.407 2.71333 269.114 2.156 268.527 1.716C267.97 1.24667 267.383 1.012 266.767 1.012C265.946 1.012 265.11 1.37867 264.259 2.112C263.438 2.84533 262.646 3.79867 261.883 4.972C261.12 6.14533 260.416 7.37733 259.771 8.668C259.155 9.95867 258.612 11.1907 258.143 12.364C257.674 13.508 257.322 14.4173 257.087 15.092H260.695C261.751 15.092 262.646 14.96 263.379 14.696C264.112 14.4027 264.846 14.256 265.579 14.256C265.814 14.256 265.931 14.3587 265.931 14.564C265.931 14.6813 265.828 14.74 265.623 14.74C265.212 14.74 264.787 15.0333 264.347 15.62C263.907 16.1773 263.467 16.896 263.027 17.776C262.587 18.656 262.191 19.58 261.839 20.548C261.487 21.4867 261.179 22.352 260.915 23.144C260.651 23.9067 260.475 24.4493 260.387 24.772C260.24 25.2413 260.094 25.7987 259.947 26.444C259.8 27.06 259.727 27.632 259.727 28.16C259.727 28.3653 259.756 28.6147 259.815 28.908C259.874 29.172 260.05 29.304 260.343 29.304C260.548 29.304 260.768 29.2307 261.003 29.084C261.648 28.7027 262.279 28.1893 262.895 27.544C263.54 26.8693 264.127 26.1507 264.655 25.388C265.212 24.596 265.652 23.8773 265.975 23.232C266.034 23.2613 266.063 23.32 266.063 23.408C266.063 23.584 265.96 23.848 265.755 24.2C265.55 24.5227 265.315 24.8747 265.051 25.256C264.787 25.6373 264.538 25.9747 264.303 26.268C264.098 26.5613 263.995 26.7373 263.995 26.796C263.966 27.0307 263.922 27.2067 263.863 27.324C263.804 27.412 263.716 27.5733 263.599 27.808C263.247 28.16 262.778 28.6 262.191 29.128C261.604 29.6267 260.988 30.0667 260.343 30.448C259.698 30.8293 259.082 31.02 258.495 31.02C258.026 31.02 257.703 30.9027 257.527 30.668C257.351 30.4333 257.263 30.096 257.263 29.656C257.263 29.304 257.351 28.7027 257.527 27.852C257.703 27.0013 257.938 26.0333 258.231 24.948C258.524 23.8333 258.832 22.7187 259.155 21.604C259.478 20.46 259.771 19.4333 260.035 18.524C260.328 17.5853 260.563 16.8813 260.739 16.412C260.328 16.4413 259.8 16.456 259.155 16.456C258.539 16.456 257.923 16.456 257.307 16.456H256.603C256.31 17.424 255.987 18.392 255.635 19.36C255.312 20.2987 254.99 21.2373 254.667 22.176C253.963 24.1707 253.244 26.1507 252.511 28.116C251.807 30.0813 250.956 31.9587 249.959 33.748C248.991 35.5667 247.759 37.2827 246.263 38.896C245.178 40.0693 243.902 41.0667 242.435 41.888C240.939 42.7093 239.37 43.12 237.727 43.12ZM265.931 11.968C265.696 11.968 265.33 11.88 264.831 11.704C264.362 11.4987 264.127 11.2493 264.127 10.956C264.127 10.9267 264.127 10.912 264.127 10.912C264.156 10.8827 264.171 10.8533 264.171 10.824C264.318 10.5307 264.64 10.3547 265.139 10.296C265.667 10.2373 266.063 10.1493 266.327 10.032C266.914 9.79733 267.486 9.60667 268.043 9.46C268.6 9.31333 269.128 9.04933 269.627 8.668C269.744 8.72667 269.803 8.78533 269.803 8.844C269.803 8.96133 269.671 9.12267 269.407 9.328C269.172 9.53333 269.011 9.70933 268.923 9.856C268.806 10.032 268.542 10.296 268.131 10.648C267.75 10.9707 267.339 11.2787 266.899 11.572C266.459 11.836 266.136 11.968 265.931 11.968ZM267.4 31.064C265.698 31.064 264.848 30.1987 264.848 28.468C264.848 27.1773 265.112 25.7987 265.64 24.332C266.168 22.836 266.857 21.4133 267.708 20.064C268.558 18.6853 269.453 17.5707 270.392 16.72C271.506 15.752 272.812 15.268 274.308 15.268C274.66 15.268 275.085 15.312 275.584 15.4C276.112 15.488 276.566 15.664 276.948 15.928C277.329 16.1627 277.52 16.5147 277.52 16.984C277.52 17.6587 277.27 18.436 276.772 19.316C276.273 20.1667 275.818 20.856 275.408 21.384C275.554 21.4133 275.73 21.4573 275.936 21.516C276.17 21.5747 276.288 21.692 276.288 21.868C276.288 21.956 276.214 22 276.068 22C275.804 22 275.54 21.9707 275.276 21.912C275.012 21.8533 274.748 21.824 274.484 21.824C273.486 21.824 272.46 21.9707 271.404 22.264C270.377 22.5573 269.394 22.8653 268.456 23.188C268.162 23.892 267.898 24.6693 267.664 25.52C267.458 26.3707 267.356 27.1773 267.356 27.94C267.356 28.4973 267.458 28.996 267.664 29.436C267.898 29.876 268.338 30.096 268.984 30.096C269.776 30.096 270.582 29.876 271.404 29.436C272.254 28.9667 273.061 28.38 273.824 27.676C274.616 26.9427 275.32 26.18 275.936 25.388C276.552 24.596 277.036 23.8773 277.388 23.232C277.417 23.2613 277.432 23.32 277.432 23.408C277.432 23.672 277.27 24.0387 276.948 24.508C276.625 24.948 276.288 25.388 275.936 25.828C275.613 26.268 275.422 26.5907 275.364 26.796C275.334 27.0013 275.276 27.1773 275.188 27.324C275.129 27.4707 275.056 27.632 274.968 27.808C274.469 28.3067 273.75 28.82 272.812 29.348C271.902 29.8467 270.949 30.2573 269.952 30.58C268.984 30.9027 268.133 31.064 267.4 31.064ZM269.072 21.78C269.834 21.6333 270.582 21.516 271.316 21.428C272.078 21.34 272.841 21.296 273.604 21.296C273.838 21.296 274.073 21.296 274.308 21.296C274.542 21.296 274.777 21.3107 275.012 21.34C275.246 20.8413 275.437 20.2987 275.584 19.712C275.76 19.1253 275.848 18.5533 275.848 17.996C275.848 17.556 275.76 17.116 275.584 16.676C275.408 16.2067 275.026 15.972 274.44 15.972C273.882 15.972 273.31 16.2067 272.724 16.676C272.166 17.1453 271.712 17.5707 271.36 17.952C270.89 18.5093 270.465 19.1253 270.084 19.8C269.732 20.4453 269.394 21.1053 269.072 21.78ZM280.122 30.932C279.652 30.932 279.315 30.7853 279.11 30.492C278.934 30.1987 278.831 29.8467 278.802 29.436C278.802 29.0253 278.802 28.644 278.802 28.292C278.802 27.7347 278.846 26.928 278.934 25.872C279.051 24.7867 279.212 23.6573 279.418 22.484C279.623 21.2813 279.887 20.196 280.21 19.228C280.562 18.2307 280.972 17.556 281.442 17.204C281.911 16.852 282.498 16.588 283.202 16.412C283.935 16.2067 284.58 16.104 285.138 16.104C285.196 16.104 285.27 16.1333 285.358 16.192C285.446 16.2507 285.504 16.3093 285.534 16.368V16.5C285.504 16.588 285.46 16.632 285.402 16.632C285.372 16.6027 285.328 16.588 285.27 16.588C284.712 16.588 284.199 16.8667 283.73 17.424C283.26 17.9813 282.85 18.656 282.498 19.448C282.146 20.24 281.852 21.0173 281.618 21.78C281.412 22.5427 281.266 23.1293 281.178 23.54C281.06 24.0973 280.972 24.6693 280.914 25.256C280.855 25.8427 280.826 26.4293 280.826 27.016C280.826 27.3093 280.855 27.6907 280.914 28.16C281.002 28.6 281.251 28.82 281.662 28.82C282.072 28.82 282.527 28.6 283.026 28.16C283.554 27.72 283.964 27.3533 284.258 27.06C285.578 25.652 286.648 24.0973 287.47 22.396C288.291 20.6947 288.995 18.9493 289.582 17.16C289.67 16.896 289.772 16.6613 289.89 16.456C290.007 16.2507 290.198 16.0747 290.462 15.928C290.579 15.8693 290.74 15.796 290.946 15.708C291.151 15.5907 291.312 15.532 291.43 15.532C291.606 15.532 291.694 15.6493 291.694 15.884C291.694 16.2067 291.547 16.6613 291.254 17.248C290.99 17.8347 290.784 18.2747 290.638 18.568C290.315 19.1547 289.875 19.9613 289.318 20.988C288.76 21.9853 288.115 23.056 287.382 24.2C286.648 25.344 285.871 26.4293 285.05 27.456C284.228 28.4533 283.392 29.2893 282.542 29.964C281.691 30.6093 280.884 30.932 280.122 30.932ZM291.813 30.976C291.344 30.976 291.036 30.8 290.889 30.448C290.772 30.0667 290.713 29.6853 290.713 29.304C290.713 27.9253 290.977 26.444 291.505 24.86C292.033 23.276 292.723 21.7653 293.573 20.328C294.424 18.8613 295.348 17.6587 296.345 16.72C297.401 15.752 298.648 15.268 300.085 15.268C300.672 15.268 301.244 15.3413 301.801 15.488C302.388 15.6053 302.96 15.7813 303.517 16.016C304.016 15.664 304.559 15.356 305.145 15.092C305.732 14.828 306.333 14.696 306.949 14.696C307.096 14.696 307.213 14.784 307.301 14.96V15.092C307.301 15.18 307.257 15.224 307.169 15.224C307.111 15.1947 307.052 15.18 306.993 15.18C306.524 15.18 306.011 15.5467 305.453 16.28C304.896 16.984 304.339 17.8933 303.781 19.008C303.224 20.1227 302.711 21.296 302.241 22.528C301.801 23.76 301.435 24.8893 301.141 25.916C300.877 26.9427 300.745 27.72 300.745 28.248C300.745 28.4533 300.775 28.688 300.833 28.952C300.921 29.216 301.097 29.348 301.361 29.348C301.508 29.348 301.625 29.3187 301.713 29.26C301.831 29.2013 301.948 29.1427 302.065 29.084C302.711 28.7027 303.341 28.1893 303.957 27.544C304.603 26.8693 305.189 26.1507 305.717 25.388C306.275 24.596 306.729 23.8773 307.081 23.232C307.111 23.2613 307.125 23.32 307.125 23.408C307.125 23.584 307.023 23.848 306.817 24.2C306.612 24.5227 306.377 24.8747 306.113 25.256C305.849 25.6373 305.6 25.9747 305.365 26.268C305.16 26.5613 305.057 26.7373 305.057 26.796C305.028 27.0013 304.984 27.1773 304.925 27.324C304.867 27.4413 304.779 27.6027 304.661 27.808C304.28 28.1893 303.796 28.6293 303.209 29.128C302.623 29.6267 302.007 30.0667 301.361 30.448C300.745 30.8 300.144 30.976 299.557 30.976C298.648 30.976 298.193 30.492 298.193 29.524C298.193 28.9373 298.311 28.2627 298.545 27.5C298.809 26.708 299.103 25.9307 299.425 25.168C299.777 24.376 300.085 23.716 300.349 23.188C300.349 23.1587 300.349 23.1147 300.349 23.056C300.349 22.9973 300.335 22.968 300.305 22.968C300.276 22.968 300.232 22.9973 300.173 23.056C299.821 23.5253 299.308 24.2 298.633 25.08C297.959 25.96 297.211 26.8547 296.389 27.764C295.597 28.644 294.791 29.4067 293.969 30.052C293.148 30.668 292.429 30.976 291.813 30.976ZM293.749 29.084C294.072 29.084 294.468 28.8787 294.937 28.468C295.436 28.028 295.949 27.5147 296.477 26.928C297.035 26.312 297.519 25.7253 297.929 25.168C298.369 24.6107 298.677 24.2 298.853 23.936C299.205 23.408 299.601 22.748 300.041 21.956C300.511 21.164 300.907 20.3427 301.229 19.492C301.581 18.6413 301.757 17.9227 301.757 17.336C301.757 16.4267 301.303 15.972 300.393 15.972C299.865 15.972 299.308 16.2067 298.721 16.676C298.135 17.1453 297.665 17.5707 297.313 17.952C296.932 18.4213 296.492 19.096 295.993 19.976C295.524 20.856 295.084 21.8093 294.673 22.836C294.263 23.8627 293.911 24.8453 293.617 25.784C293.353 26.7227 293.221 27.5 293.221 28.116C293.221 28.292 293.251 28.4973 293.309 28.732C293.368 28.9667 293.515 29.084 293.749 29.084Z" fill="black"/>
</svg>
