<svg width="22" height="22" viewBox="0 0 22 22" fill="none" xmlns="http://www.w3.org/2000/svg">
<path d="M19.1042 4.76953C14.1674 14.1327 7.83133 14.1239 2.89453 4.76953" stroke="#383838" stroke-width="1.2" stroke-linecap="round" stroke-linejoin="round"/>
<path d="M2.19141 6.5034V15.3034C2.19141 16.237 2.56226 17.1322 3.22239 17.7924C3.88252 18.4525 4.77785 18.8234 5.71141 18.8234H16.2714C17.205 18.8234 18.1003 18.4525 18.7604 17.7924C19.4205 17.1322 19.7914 16.237 19.7914 15.3034V6.5034C19.7914 5.56984 19.4205 4.67446 18.7604 4.01433C18.1003 3.3542 17.205 2.9834 16.2714 2.9834H5.71141C4.77785 2.9834 3.88252 3.3542 3.22239 4.01433C2.56226 4.67446 2.19141 5.56984 2.19141 6.5034Z" stroke="#383838" stroke-width="1.2" stroke-linecap="round" stroke-linejoin="round"/>
</svg>
