<svg width="22" height="22" viewBox="0 0 22 22" fill="none" xmlns="http://www.w3.org/2000/svg">
<path d="M3.66699 9.29819C3.66699 5.17555 6.95024 1.8335 11.0003 1.8335C15.0504 1.8335 18.3337 5.17555 18.3337 9.29819C18.3337 13.3885 15.9931 18.1615 12.3413 19.8684C11.4901 20.2663 10.5106 20.2663 9.65933 19.8684C6.00754 18.1615 3.66699 13.3885 3.66699 9.29819Z" stroke="#383838" stroke-width="1.2"/>
<path d="M11 11.9165C12.5188 11.9165 13.75 10.6853 13.75 9.1665C13.75 7.64772 12.5188 6.4165 11 6.4165C9.48122 6.4165 8.25 7.64772 8.25 9.1665C8.25 10.6853 9.48122 11.9165 11 11.9165Z" stroke="#383838" stroke-width="1.2"/>
</svg>
