<svg width="22" height="22" viewBox="0 0 22 22" fill="none" xmlns="http://www.w3.org/2000/svg">
<path d="M15.2441 12.7335L15.6616 12.3183L14.6921 11.3432L14.2746 11.7584L15.2441 12.7335ZM17.0638 12.1444L18.815 13.0965L19.4717 11.8885L17.7205 10.9364L17.0638 12.1444ZM19.1522 14.9886L17.85 16.2834L18.8194 17.2585L20.1217 15.9637L19.1522 14.9886ZM17.0565 16.7003C15.7274 16.8242 12.2888 16.7138 8.56587 13.0119L7.59636 13.987C11.6591 18.0267 15.5259 18.2239 17.1841 18.0694L17.0565 16.7003ZM8.56587 13.0119C5.0171 9.48333 4.42925 6.51548 4.35608 5.22793L2.9833 5.30595C3.07538 6.92646 3.80328 10.2155 7.59636 13.987L8.56587 13.0119ZM9.82658 7.34668L10.0895 7.08525L9.12001 6.11022L8.8571 6.37164L9.82658 7.34668ZM10.2988 3.75298L9.14288 2.20894L8.04216 3.03297L9.19802 4.57702L10.2988 3.75298ZM5.25528 1.87288L3.81648 3.30351L4.78598 4.27855L6.22478 2.84792L5.25528 1.87288ZM9.34184 6.85916C8.8571 6.37164 8.85644 6.37229 8.85578 6.37295C8.85556 6.37317 8.8549 6.37384 8.85445 6.37429C8.85355 6.37519 8.85264 6.37611 8.85171 6.37706C8.84985 6.37895 8.84793 6.38092 8.84595 6.38298C8.84198 6.38709 8.83778 6.39155 8.83336 6.39635C8.82451 6.40595 8.81481 6.41693 8.80441 6.42933C8.78363 6.45413 8.76008 6.48466 8.73533 6.52119C8.68571 6.59442 8.63165 6.69125 8.58577 6.81302C8.49215 7.06148 8.44196 7.38902 8.50488 7.7946C8.62794 8.58777 9.17419 9.63549 10.5735 11.0268L11.5429 10.0518C10.2335 8.74971 9.92154 7.95734 9.86361 7.5838C9.83602 7.40603 9.86462 7.31854 9.8725 7.29782C9.87727 7.285 9.87956 7.28369 9.87369 7.29245C9.87076 7.29673 9.8659 7.30343 9.85829 7.31246C9.85454 7.31698 9.85004 7.32209 9.84482 7.32779C9.84216 7.33065 9.83941 7.33364 9.83629 7.33679C9.83483 7.33836 9.83327 7.33997 9.83162 7.34162C9.83079 7.34244 9.82997 7.34328 9.82914 7.34412C9.82878 7.34454 9.82814 7.34518 9.82786 7.34539C9.82722 7.34604 9.82658 7.34668 9.34184 6.85916ZM10.5735 11.0268C11.9732 12.4186 13.0258 12.9602 13.8203 13.0822C14.2263 13.1444 14.5536 13.0947 14.802 13.0022C14.9237 12.9569 15.0207 12.9034 15.094 12.8543C15.1307 12.8297 15.1613 12.8063 15.1861 12.7857C15.1986 12.7754 15.2096 12.7658 15.2192 12.757C15.2241 12.7526 15.2286 12.7485 15.2327 12.7446C15.2348 12.7425 15.2367 12.7406 15.2387 12.7388C15.2396 12.7379 15.2405 12.7369 15.2414 12.736C15.2419 12.7356 15.2426 12.7349 15.2428 12.7347C15.2434 12.7341 15.2441 12.7335 14.7593 12.2459C14.2746 11.7584 14.2753 11.7578 14.2759 11.7571C14.2761 11.7569 14.2767 11.7563 14.2772 11.7558C14.278 11.755 14.2788 11.7542 14.2797 11.7534C14.2814 11.7518 14.283 11.7502 14.2845 11.7487C14.2877 11.7457 14.2907 11.7429 14.2936 11.7403C14.2993 11.7351 14.3044 11.7306 14.309 11.727C14.318 11.7194 14.3247 11.7147 14.3288 11.7118C14.3373 11.7062 14.3356 11.7087 14.322 11.7138C14.2995 11.7221 14.2096 11.7508 14.0289 11.723C13.65 11.665 12.852 11.3533 11.5429 10.0518L10.5735 11.0268ZM9.14288 2.20894C8.20851 0.960821 6.37117 0.763325 5.25528 1.87288L6.22478 2.84792C6.71216 2.3633 7.57775 2.41263 8.04216 3.03297L9.14288 2.20894ZM4.35608 5.22793C4.33805 4.91066 4.48356 4.57925 4.78598 4.27855L3.81648 3.30351C3.32394 3.79326 2.93672 4.48653 2.9833 5.30595L4.35608 5.22793ZM17.85 16.2834C17.5981 16.534 17.328 16.675 17.0565 16.7003L17.1841 18.0694C17.8575 18.0066 18.4092 17.6664 18.8194 17.2585L17.85 16.2834ZM10.0895 7.08525C10.9919 6.18791 11.059 4.76854 10.2988 3.75298L9.19802 4.57702C9.56789 5.07108 9.51289 5.71957 9.12001 6.11022L10.0895 7.08525ZM18.815 13.0965C19.5647 13.504 19.6815 14.4623 19.1522 14.9886L20.1217 15.9637C21.3503 14.7421 20.9714 12.7037 19.4717 11.8885L18.815 13.0965ZM15.6616 12.3183C16.0136 11.9683 16.5802 11.8816 17.0638 12.1444L17.7205 10.9364C16.7272 10.3964 15.4944 10.5456 14.6921 11.3432L15.6616 12.3183Z" fill="#383838"/>
</svg>
