<svg width="121" height="108" viewBox="0 0 121 108" fill="none" xmlns="http://www.w3.org/2000/svg">
<path d="M109.707 0C111.499 0 112.933 0.359995 114.009 1.07998C115.084 1.8 114.905 2.87999 113.471 4.31998C110.244 7.19997 106.3 11.7 101.64 17.82C96.9794 23.58 92.6772 30.6 88.7332 38.88C85.1483 47.16 83.3554 56.52 83.3554 66.96C83.3554 69.1202 83.3554 71.2802 83.3554 73.4402C83.7137 75.6002 84.0727 77.7602 84.431 79.9202C84.7893 81.7197 82.9971 84.5999 79.0532 88.5602C75.4683 92.1599 71.5243 95.3999 67.2221 98.2802C62.92 100.8 59.8726 101.16 58.08 99.3602C56.6459 97.5599 55.5704 95.7597 54.8534 93.9602C54.1363 92.1599 53.7778 89.4599 53.7778 85.8602C53.7778 75.4199 55.9289 65.52 60.2311 56.16C64.5334 46.44 69.5527 37.8 75.2888 30.24C81.0248 22.32 86.5821 15.84 91.9599 10.8C97.3377 5.75999 101.102 2.69999 103.253 1.61998C105.046 0.539993 107.197 0 109.707 0ZM55.3911 0C57.1837 0 58.6178 0.359995 59.6934 1.07998C61.1274 1.8 60.9481 2.87999 59.1556 4.31998C55.9289 7.19997 51.9852 11.7 47.3245 17.82C42.6637 23.58 38.3615 30.6 34.4178 38.88C30.8326 47.16 29.04 56.52 29.04 66.96C29.04 69.1202 29.04 71.2802 29.04 73.4402C29.3985 75.6002 29.757 77.7602 30.1156 79.9202C30.4741 81.7197 28.6815 84.5999 24.7378 88.5602C21.1526 92.1599 17.2089 95.3999 12.9067 98.2802C8.60448 100.8 5.7363 101.16 4.30222 99.3602C2.86815 97.5599 1.79259 95.7597 1.07556 93.9602C0.358519 92.1599 0 89.4599 0 85.8602C0 82.2597 0.537779 77.2202 1.61334 70.7402C4.12297 58.86 8.60448 48.06 15.0578 38.34C21.8696 28.26 28.6815 19.98 35.4934 13.5C42.3052 6.65999 46.7867 2.69999 48.9378 1.61998C50.7304 0.539993 52.8815 0 55.3911 0Z" fill="#F9F9F9"/>
</svg>
